<svg width="20" height="21" viewBox="0 0 20 21" fill="none" xmlns="http://www.w3.org/2000/svg">
<g clip-path="url(#clip0_0:528)">
<path d="M4.37082 9.93494L13.1252 1.18073C13.3277 0.97809 13.598 0.866455 13.8862 0.866455C14.1744 0.866455 14.4447 0.97809 14.6471 1.18073L15.2918 1.82527C15.7113 2.24526 15.7113 2.92786 15.2918 3.34721L7.94057 10.6985L15.3 18.0579C15.5025 18.2605 15.6143 18.5307 15.6143 18.8187C15.6143 19.1071 15.5025 19.3772 15.3 19.58L14.6553 20.2244C14.4527 20.427 14.1825 20.5386 13.8943 20.5386C13.6061 20.5386 13.3358 20.427 13.1333 20.2244L4.37082 11.4622C4.16786 11.2589 4.05638 10.9875 4.05702 10.6989C4.05638 10.4093 4.16786 10.1381 4.37082 9.93494Z" fill="#494949"/>
</g>
<defs>
<clipPath id="clip0_0:528">
<rect width="19.6722" height="19.6722" fill="white" transform="matrix(-1 8.74228e-08 8.74228e-08 1 19.6721 0.866455)"/>
</clipPath>
</defs>
</svg>
