<svg width="28" height="28" viewBox="0 0 28 28" fill="none" xmlns="http://www.w3.org/2000/svg">
<path d="M4 7C5.7595 7 7.216 5.693 7.46 4H27C27.2765 4 27.5 3.7765 27.5 3.5C27.5 3.2235 27.2765 3 27 3H7.46C7.216 1.307 5.7595 0 4 0C2.07 0 0.5 1.5705 0.5 3.5C0.5 5.4295 2.07 7 4 7ZM4 1C5.3785 1 6.5 2.1215 6.5 3.5C6.5 4.8785 5.3785 6 4 6C2.6215 6 1.5 4.8785 1.5 3.5C1.5 2.1215 2.6215 1 4 1Z" fill="#251C41"/>
<path d="M24 21C22.2405 21 20.784 22.307 20.54 24H1C0.724 24 0.5 24.2235 0.5 24.5C0.5 24.7765 0.724 25 1 25H20.54C20.784 26.693 22.2405 28 24 28C25.9295 28 27.5 26.4295 27.5 24.5C27.5 22.5705 25.9295 21 24 21ZM24 27C22.6215 27 21.5 25.8785 21.5 24.5C21.5 23.1215 22.6215 22 24 22C25.3785 22 26.5 23.1215 26.5 24.5C26.5 25.8785 25.3785 27 24 27Z" fill="#251C41"/>
<path d="M27 13.5H17.684C17.486 11.699 15.9565 10.293 14.1035 10.293C12.2505 10.293 10.721 11.6995 10.523 13.5H1C0.724 13.5 0.5 13.7235 0.5 14C0.5 14.2765 0.724 14.5 1 14.5H10.5545C10.843 16.2 12.3225 17.5 14.1035 17.5C15.8845 17.5 17.3635 16.2 17.652 14.5H27C27.2765 14.5 27.5 14.2765 27.5 14C27.5 13.7235 27.2765 13.5 27 13.5ZM14.1035 16.5C12.668 16.5 11.5 15.332 11.5 13.8965C11.5 12.461 12.668 11.293 14.1035 11.293C15.539 11.293 16.707 12.461 16.707 13.8965C16.707 15.332 15.539 16.5 14.1035 16.5Z" fill="#251C41"/>
</svg>
