<svg width="56" height="56" viewBox="0 0 56 56" fill="none" xmlns="http://www.w3.org/2000/svg">
<g clip-path="url(#clip0)">
<path d="M52.2312 14.588V49.2462L3.54912 45.9V14.588C3.54912 12.0942 5.56956 10.0737 8.0634 10.0737H47.717C50.2108 10.0737 52.2312 12.0942 52.2312 14.588Z" fill="#CCCCCC"/>
<path d="M52.2313 14.5875V44.9852H5.03467V14.5875C5.03467 12.0941 7.05554 10.0732 9.54895 10.0732H47.717C50.2108 10.0732 52.2313 12.0941 52.2313 14.5875Z" fill="#E6E6E6"/>
<path d="M42.1846 33.5889C42.1846 40.2026 39.9479 43.4275 36.4291 44.9852C33.6268 46.2298 30.0111 46.4152 26.0624 46.4152C22.1138 46.4152 18.4976 46.2298 15.6945 44.9852C12.1752 43.4275 9.93903 40.2026 9.93903 33.5889C9.93903 23.9579 14.6806 15.8047 21.2213 13.0618H20.771C20.3707 13.0618 20.0075 12.8995 19.7456 12.6367C19.4829 12.374 19.3205 12.0117 19.3205 11.6105C19.3205 10.8094 19.9699 10.1604 20.771 10.1604H21.8955C21.8806 10.1318 21.8669 10.1031 21.8507 10.0732H30.2725C30.2567 10.1031 30.2431 10.1318 30.2281 10.1604H31.3526C31.7538 10.1604 32.1161 10.3223 32.3776 10.5855C32.6408 10.847 32.8027 11.2093 32.8027 11.6105C32.8027 12.4116 32.1537 13.0618 31.3526 13.0618H30.9036C37.4417 15.8047 42.1846 23.9579 42.1846 33.5889Z" fill="#CCCCCC"/>
<path d="M48.8031 14.5876V42.4714H6.97781V14.5876C6.97781 13.989 7.46444 13.502 8.06344 13.502H47.717C48.316 13.502 48.8031 13.989 48.8031 14.5876Z" fill="#8B75C8"/>
<path d="M42.1846 33.5889C42.1846 37.7465 41.301 40.5637 39.7711 42.4714H12.3525C10.8222 40.5637 9.93903 37.7465 9.93903 33.5889C9.93903 24.4279 14.229 16.6038 20.2771 13.502H31.8474C37.8933 16.6038 42.1846 24.4279 42.1846 33.5889Z" fill="#83B2C6"/>
<path d="M23.0508 13.0612C16.5101 15.8036 11.7672 23.9576 11.7672 33.5891C11.7672 45.4716 18.9855 46.415 27.8906 46.415C36.7944 46.415 44.0128 45.4716 44.0128 33.5891C44.0128 23.9576 39.2699 15.8041 32.7305 13.0612L28.4986 11.3428" fill="#FF8E1D"/>
<path d="M27.6484 46.4141C18.8552 46.397 11.7672 45.3627 11.7672 33.5891C11.7672 23.9581 16.5101 15.8037 23.0508 13.062H25.0768C21.2747 15.8037 18.5181 23.9581 18.5181 33.5891C18.5181 45.2862 22.5834 46.3834 27.6484 46.4141Z" fill="#E2720E"/>
<path d="M32.0563 10.1603L27.5279 11.6659L23.7237 10.1603C22.7363 8.21372 21.261 4.72013 22.5902 3.39225C24.4504 1.53159 27.8013 6.18089 27.8885 6.30308C27.8893 6.30521 27.8906 6.30521 27.8906 6.30521C27.8906 6.30521 31.3056 1.50639 33.1902 3.39225C34.5193 4.72013 33.0436 8.21372 32.0563 10.1603Z" fill="#FF8E1D"/>
<path d="M26.3419 10.1606H23.7237C22.7363 8.21402 21.261 4.72043 22.5902 3.39254C24.4504 1.53189 27.8013 6.18118 27.8885 6.30337C27.8082 6.25766 24.9102 4.58456 24.2334 6.27475C23.8288 7.28476 25.1716 8.957 26.3419 10.1606Z" fill="#E2720E"/>
<path d="M34.6313 11.6107C34.6313 12.4117 33.9819 13.062 33.1808 13.062H22.5992C22.1993 13.062 21.8357 12.8997 21.5742 12.6369C21.311 12.3741 21.1491 12.0118 21.1491 11.6107C21.1491 10.8096 21.7981 10.1602 22.5992 10.1602H33.1808C33.582 10.1602 33.9443 10.3225 34.2062 10.5853C34.4689 10.8472 34.6313 11.2095 34.6313 11.6107Z" fill="#ED3618"/>
<path d="M34.6313 11.6107C34.6313 12.4117 33.9819 13.062 33.1808 13.062H26.79C26.3889 13.062 26.0265 12.8997 25.7651 12.6369C25.5019 12.3741 25.34 12.0118 25.34 11.6107C25.34 10.8096 25.989 10.1602 26.79 10.1602H33.1808C33.582 10.1602 33.9443 10.3225 34.2062 10.5853C34.4689 10.8472 34.6313 11.2095 34.6313 11.6107Z" fill="#FF491F"/>
<path d="M31.5444 30.4838C30.8463 29.7618 29.8965 29.3375 29.0574 29.0188V23.9884C29.897 24.0824 30.4297 24.3533 30.8202 24.5515C31.0659 24.6763 31.2599 24.7745 31.4333 24.7745C31.9631 24.7745 32.2519 24.0892 32.2519 23.7368C32.2519 23.324 31.8482 22.9592 31.0838 22.6815C30.5224 22.4777 29.803 22.3345 29.0579 22.2786V21.2139C29.0579 20.7332 28.6669 20.3423 28.1863 20.3423C27.7056 20.3423 27.3147 20.7332 27.3147 21.2139V22.3375C26.6114 22.4294 25.6134 22.6695 24.8281 23.292C23.9655 23.976 23.528 24.9672 23.528 26.2383C23.528 27.4995 23.9536 28.4548 24.8281 29.1585C25.5258 29.7203 26.4025 30.0553 27.3147 30.3757V36.2367C25.8693 36.0923 25.1434 35.4048 24.6619 34.949C24.3889 34.6901 24.1915 34.5034 23.9736 34.5034C23.5408 34.5034 23.1332 35.0883 23.1332 35.5411C23.1332 36.4636 24.7619 37.8923 27.3147 38.038V39.2056C27.3147 39.6859 27.7056 40.0768 28.1863 40.0768C28.6669 40.0768 29.0574 39.6859 29.0574 39.2056V37.9354C30.1084 37.7444 30.9518 37.3146 31.5641 36.658C32.2827 35.8872 32.6471 34.8396 32.6471 33.5446C32.6471 32.2526 32.2861 31.2516 31.5444 30.4838ZM30.8343 33.7202C30.8343 34.4243 30.6421 34.9973 30.2631 35.4236C29.9696 35.7535 29.5641 35.991 29.0579 36.129V31.0734C29.5535 31.3131 29.9264 31.5763 30.1973 31.8771C30.6258 32.353 30.8343 32.9559 30.8343 33.7202ZM25.3404 26.0627C25.3404 25.4492 25.5514 24.96 25.9672 24.6092C26.294 24.3328 26.7473 24.1414 27.3147 24.0392V28.3826C26.0953 27.893 25.3404 27.3312 25.3404 26.0627Z" fill="#E2720E"/>
<path d="M55.8906 45.8999V47.1013C55.8906 50.4454 53.1798 53.1571 49.8344 53.1571H5.94555C2.60149 53.1571 -0.109383 50.4454 -0.109383 47.1013V45.8999H55.8906Z" fill="#CCCCCC"/>
<path d="M55.8906 45.8999V47.1013C55.8906 50.4454 53.1797 53.1571 49.8344 53.1571H16.4028C13.0575 53.1571 10.3466 50.4454 10.3466 47.1013V45.8999H55.8906Z" fill="#E6E6E6"/>
<path d="M31.1266 49.3286H24.6547C23.0811 49.3286 21.8054 48.0529 21.8054 46.4793V45.9004H33.9763V46.4793C33.9759 48.0529 32.7001 49.3286 31.1266 49.3286Z" fill="#CCCCCC"/>
</g>
<defs>
<clipPath id="clip0">
<rect width="56" height="56" fill="white"/>
</clipPath>
</defs>
</svg>
