<svg width="20" height="21" viewBox="0 0 20 21" fill="none" xmlns="http://www.w3.org/2000/svg">
<g clip-path="url(#clip0_0:532)">
<path d="M15.6292 11.4701L6.87481 20.2243C6.67233 20.4269 6.40204 20.5386 6.11384 20.5386C5.82564 20.5386 5.55535 20.4269 5.35287 20.2243L4.70817 19.5798C4.28866 19.1598 4.28866 18.4772 4.70817 18.0578L12.0594 10.7066L4.70002 3.34715C4.49754 3.14451 4.38575 2.87438 4.38575 2.58633C4.38575 2.29797 4.49754 2.02784 4.70002 1.82504L5.34472 1.18066C5.54735 0.978026 5.81749 0.866392 6.10569 0.866392C6.39389 0.866392 6.66418 0.978026 6.86666 1.18066L15.6292 9.94287C15.8321 10.1462 15.9436 10.4176 15.943 10.7061C15.9436 10.9957 15.8321 11.267 15.6292 11.4701Z" fill="#545454"/>
</g>
<defs>
<clipPath id="clip0_0:532">
<rect width="19.6722" height="19.6722" fill="white" transform="matrix(1 1.74846e-07 1.74846e-07 -1 0.327881 20.5387)"/>
</clipPath>
</defs>
</svg>
