<svg width="28" height="28" viewBox="0 0 28 28" fill="none" xmlns="http://www.w3.org/2000/svg">
<path d="M26.1381 14.3626C26.0254 14.1321 26.0254 13.8678 26.1381 13.6373L27.1824 11.501C27.7638 10.3115 27.3031 8.8937 26.1336 8.27317L24.0331 7.15864C23.8064 7.03844 23.6511 6.8245 23.6067 6.5719L23.1959 4.22971C22.9671 2.92564 21.7609 2.04933 20.4502 2.23477L18.0957 2.56782C17.8416 2.60369 17.5903 2.52199 17.406 2.34365L15.6969 0.690351C14.7453 -0.230253 13.2545 -0.230307 12.303 0.690351L10.5939 2.34382C10.4095 2.52221 10.1582 2.60375 9.90413 2.56798L7.54969 2.23494C6.23856 2.04938 5.03271 2.9258 4.80395 4.22987L4.39314 6.57196C4.34879 6.82461 4.19342 7.03849 3.96686 7.15875L1.86632 8.27328C0.696781 8.89376 0.236096 10.3116 0.81753 11.5011L1.86178 13.6374C1.97444 13.8679 1.97444 14.1323 1.86178 14.3627L0.817475 16.499C0.236041 17.6885 0.696726 19.1063 1.86627 19.7268L3.9668 20.8414C4.19342 20.9616 4.34879 21.1755 4.39314 21.4281L4.80395 23.7703C5.0122 24.9575 6.03015 25.79 7.20007 25.7899C7.3153 25.7899 7.43222 25.7818 7.54974 25.7652L9.90419 25.4321C10.1581 25.3961 10.4096 25.478 10.594 25.6563L12.303 27.3096C12.7789 27.77 13.3893 28.0001 13.9999 28C14.6104 28 15.2212 27.7699 15.6969 27.3096L17.406 25.6563C17.5904 25.478 17.8417 25.3965 18.0957 25.4321L20.4502 25.7652C21.7615 25.9507 22.9671 25.0743 23.1959 23.7703L23.6068 21.4282C23.6511 21.1755 23.8065 20.9616 24.0331 20.8414L26.1336 19.7268C27.3031 19.1064 27.7638 17.6885 27.1824 16.499L26.1381 14.3626ZM10.7701 6.73285C12.4026 6.73285 13.7308 8.06104 13.7308 9.69356C13.7308 11.3261 12.4026 12.6543 10.7701 12.6543C9.13753 12.6543 7.80934 11.3261 7.80934 9.69356C7.80934 8.06104 9.13753 6.73285 10.7701 6.73285ZM9.24187 19.8999C9.08421 20.0575 8.87755 20.1364 8.67094 20.1364C8.46433 20.1364 8.25761 20.0576 8.1 19.8999C7.78468 19.5846 7.78468 19.0733 8.1 18.758L18.7579 8.10003C19.0732 7.7847 19.5845 7.7847 19.8999 8.10003C20.2152 8.41535 20.2152 8.92662 19.8999 9.24195L9.24187 19.8999ZM17.2297 21.2672C15.5972 21.2672 14.269 19.939 14.269 18.3065C14.269 16.6739 15.5972 15.3457 17.2297 15.3457C18.8622 15.3457 20.1904 16.6739 20.1904 18.3065C20.1904 19.939 18.8622 21.2672 17.2297 21.2672Z" fill="#C4C4C4"/>
<path d="M17.2297 16.9607C16.4876 16.9607 15.8839 17.5644 15.8839 18.3064C15.8839 19.0485 16.4876 19.6522 17.2297 19.6522C17.9717 19.6522 18.5754 19.0485 18.5754 18.3064C18.5754 17.5644 17.9717 16.9607 17.2297 16.9607Z" fill="#C4C4C4"/>
<path d="M10.77 8.34774C10.028 8.34774 9.42431 8.95144 9.42431 9.69349C9.42431 10.4355 10.028 11.0393 10.77 11.0393C11.5121 11.0393 12.1158 10.4356 12.1158 9.69349C12.1158 8.95149 11.5121 8.34774 10.77 8.34774Z" fill="#C4C4C4"/>
</svg>
