<svg width="64" height="64" viewBox="0 0 64 64" fill="none" xmlns="http://www.w3.org/2000/svg">
<path d="M32 0C49.6731 0 64 14.3269 64 32C64 49.6731 49.6731 64 32 64C14.3269 64 0 49.6731 0 32C0 14.3269 14.3269 0 32 0Z" fill="url(#paint0_linear)"/>
<path d="M31.9997 1.03739C49.0999 1.03739 62.9623 14.8998 62.9623 32C62.9623 49.1002 49.0999 62.9626 31.9997 62.9626C14.8995 62.9626 1.03711 49.1002 1.03711 32C1.03711 14.8998 14.8995 1.03739 31.9997 1.03739Z" fill="url(#paint1_linear)"/>
<path d="M31.9992 4.076C47.4212 4.076 59.9232 16.578 59.9232 32C59.9232 47.422 47.4212 59.924 31.9992 59.924C16.5772 59.924 4.0752 47.422 4.0752 32C4.0752 16.578 16.5772 4.076 31.9992 4.076Z" fill="url(#paint2_linear)"/>
<path d="M31.9999 9.91999C44.1944 9.91999 54.0799 19.8055 54.0799 32C54.0799 44.1944 44.1944 54.08 31.9999 54.08C19.8055 54.08 9.91992 44.1944 9.91992 32C9.91992 19.8055 19.8055 9.91999 31.9999 9.91999Z" fill="url(#paint3_linear)"/>
<path d="M31.9335 9.85337C44.128 9.85337 54.0135 19.7389 54.0135 31.9334C54.0135 44.1278 44.128 54.0134 31.9335 54.0134C19.7391 54.0134 9.85352 44.1278 9.85352 31.9334C9.85352 19.7389 19.7391 9.85337 31.9335 9.85337Z" fill="url(#paint4_linear)"/>
<path d="M54.0509 30.8517L45.1667 39.736C44.5367 40.5502 43.8146 40.9276 43.032 40.8495C42.9071 41.0035 36.2078 47.498 36.2078 47.498C34.0456 48.1105 30.2667 49.1529 28.2978 49.6655C25.445 50.4081 25.1299 50.7434 26.1238 47.4751C26.4141 46.5206 26.1659 46.1717 25.3072 45.755C21.0716 43.6994 18.3453 40.3307 17.1733 35.7859C16.1604 31.8579 16.6247 28.0576 18.6129 24.4915C18.8603 24.0477 19.1698 23.7086 19.5166 23.473L33.0442 9.94524C44.3732 10.4726 53.4712 19.5366 54.0509 30.8517Z" fill="url(#paint5_linear)"/>
<path d="M54.0515 30.8512C53.4707 19.536 44.3731 10.472 33.0435 9.94562L26.043 16.9627L26.0803 17.0129L26.0947 17.0432C26.0931 17.0449 26.0947 17.0449 26.0947 17.0449C26.0323 17.2272 26.1411 17.4545 26.4115 17.7649C26.5058 17.8769 26.6242 18.0001 26.7618 18.1361C29.1778 20.5185 31.6035 22.8929 34.0402 25.2561C35.0418 26.2274 35.2675 26.1457 35.6786 24.7554C35.8833 24.0626 36.0818 23.3666 36.293 22.6754C36.317 22.6001 36.4066 22.5441 36.4657 22.4786C41.709 24.5539 44.1137 31.141 41.5825 36.4946C40.5872 38.6002 40.7745 39.9042 42.1712 40.5939C42.4656 40.7379 42.752 40.8242 43.0305 40.8515C43.0321 40.8499 43.0321 40.8499 43.0321 40.8499C43.7697 40.9235 44.4529 40.5922 45.0577 39.8722C45.0945 39.8275 45.1297 39.7826 45.1665 39.7362L54.0515 30.8512Z" fill="url(#paint6_linear)"/>
<path d="M36.4662 22.4789C41.7086 24.5535 44.1127 31.1401 41.5826 36.4938C40.5872 38.5999 40.7746 39.9039 42.1719 40.5936C43.6261 41.3115 44.9277 40.5828 45.898 38.5074C49.4214 30.9714 46.304 21.9086 38.8402 18.2645C37.7529 17.7336 37.6435 17.2558 37.9527 16.2165C38.7485 13.5439 38.7025 13.5318 35.9959 14.2245C33.0604 14.9759 30.1214 15.7126 27.1895 16.4778C25.6111 16.8333 25.752 17.141 26.761 18.1355C29.1784 20.5183 31.6041 22.8926 34.0407 25.2555C35.0421 26.2266 35.2676 26.1455 35.678 24.7556C35.8826 24.0621 36.0814 23.3669 36.2927 22.6755C36.316 22.5994 36.4061 22.5435 36.4662 22.4789Z" fill="url(#paint7_linear)"/>
<path d="M36.2078 47.4981C36.9492 47.2881 37.2017 46.366 36.6726 45.8059C34.2541 43.2446 31.9287 40.7706 29.5703 38.3284C28.9947 37.7324 28.6202 38.1476 28.4378 38.7952C28.1838 39.6975 27.9214 40.5974 27.6604 41.5054C22.5603 39.5974 20.0084 33.1214 22.2169 27.9394C22.3941 27.5238 22.6137 27.1265 22.8037 26.716C23.4471 25.3265 23.0452 23.9466 21.8271 23.3471C20.6223 22.754 19.3473 23.174 18.6129 24.4914C16.6247 28.0575 16.1604 31.8579 17.1733 35.7857C18.3453 40.3305 21.0716 43.6992 25.3072 45.7549C26.1658 46.1716 26.4141 46.5205 26.1237 47.475C25.1297 50.7431 25.4448 50.4079 28.2977 49.6654C30.2667 49.1531 34.0456 48.1106 36.2078 47.4981Z" fill="url(#paint8_linear)"/>
<defs>
<linearGradient id="paint0_linear" x1="32.001" y1="-14.1056" x2="32.001" y2="67.03" gradientUnits="userSpaceOnUse">
<stop stop-color="white"/>
<stop offset="1" stop-color="#E8EFEE"/>
</linearGradient>
<linearGradient id="paint1_linear" x1="32.0007" y1="76.6146" x2="32.0007" y2="-1.89187" gradientUnits="userSpaceOnUse">
<stop stop-color="white"/>
<stop offset="1" stop-color="#E8EFEE"/>
</linearGradient>
<linearGradient id="paint2_linear" x1="16.833" y1="47.1683" x2="45.6939" y2="18.3074" gradientUnits="userSpaceOnUse">
<stop stop-color="#5B6A6A"/>
<stop offset="1" stop-color="#303033"/>
</linearGradient>
<linearGradient id="paint3_linear" x1="32.0009" y1="50.5618" x2="32.0009" y2="13.9086" gradientUnits="userSpaceOnUse">
<stop stop-color="white"/>
<stop offset="1" stop-color="#E8EFEE"/>
</linearGradient>
<linearGradient id="paint4_linear" x1="31.9345" y1="50.4951" x2="31.9345" y2="13.8419" gradientUnits="userSpaceOnUse">
<stop stop-color="white"/>
<stop offset="1" stop-color="#E8EFEE"/>
</linearGradient>
<linearGradient id="paint5_linear" x1="36.5572" y1="27.3833" x2="20.6407" y2="43.2985" gradientUnits="userSpaceOnUse">
<stop stop-color="#C2CECE" stop-opacity="0"/>
<stop offset="0.179" stop-color="#AFBCBC" stop-opacity="0.179"/>
<stop offset="1" stop-color="#5B6A6A"/>
</linearGradient>
<linearGradient id="paint6_linear" x1="45.0266" y1="18.9457" x2="29.3914" y2="34.5809" gradientUnits="userSpaceOnUse">
<stop stop-color="#C2CECE" stop-opacity="0"/>
<stop offset="0.179" stop-color="#AFBCBC" stop-opacity="0.179"/>
<stop offset="1" stop-color="#5B6A6A"/>
</linearGradient>
<linearGradient id="paint7_linear" x1="36.6751" y1="13.8397" x2="36.6751" y2="40.8639" gradientUnits="userSpaceOnUse">
<stop stop-color="#8B75C8"/>
<stop offset="1" stop-color="#8B75C8"/>
</linearGradient>
<linearGradient id="paint8_linear" x1="19.145" y1="44.2655" x2="31.0413" y2="32.3678" gradientUnits="userSpaceOnUse">
<stop stop-color="#8B75C8"/>
<stop offset="1" stop-color="#8B75C8"/>
</linearGradient>
</defs>
</svg>
