<svg width="39" height="42" viewBox="0 0 39 42" fill="none" xmlns="http://www.w3.org/2000/svg">
<g clip-path="url(#clip0)">
<path d="M38.9761 17.3266C38.1717 12.3305 18.7648 13.1135 6.56314 18.6413L5.59347 19.0994C1.91079 20.9179 -0.253865 22.938 0.0238576 24.6731C0.833184 29.7043 20.4159 28.8571 32.5464 23.3084L33.9929 22.6017C37.3173 20.8619 39.2391 18.9679 38.9761 17.3266Z" fill="#C4C4C4"/>
<path d="M2.02733 24.673C1.74961 22.9379 3.91426 20.9177 7.59694 19.0993L8.56661 18.6413C14.6287 15.8949 23.0727 14.1589 29.8509 14.0003C22.6081 13.8209 13.1024 15.6788 6.56314 18.6413L5.59347 19.0993C1.91079 20.9178 -0.253865 22.9379 0.0238576 24.673C0.390244 26.9507 4.86831 28.1465 11.1473 27.9994C5.9367 27.8701 2.35342 26.7002 2.02733 24.673Z" fill="#C4C4C4"/>
<path d="M32.6456 20.8213V21.247C32.6456 21.3168 32.6982 21.3734 32.763 21.3734H32.9882C33.0315 21.3734 33.0666 21.4112 33.0666 21.4578V22.0181C33.0685 22.0758 33.0653 22.1378 33.0567 22.1874C33.0392 22.3079 32.9341 22.5117 32.6354 22.5117C32.3378 22.5117 32.2346 22.3079 32.216 22.1874C32.2085 22.1378 32.2049 22.0759 32.2049 22.0181V19.983C32.2049 19.9104 32.2097 19.8322 32.224 19.7733C32.2442 19.6647 32.3331 19.4502 32.633 19.4502C32.9477 19.4502 33.0258 19.6754 33.0433 19.7733C33.0555 19.8369 33.0567 19.9446 33.0567 19.9446V20.0769C33.0567 20.14 33.1042 20.1911 33.1628 20.1911H33.9592C34.0325 20.1911 34.0919 20.1271 34.0919 20.0482V20.045C34.0919 20.045 34.0963 19.8925 34.084 19.7502C34.0066 18.9149 33.371 18.6517 32.6414 18.6517C31.9113 18.6517 31.2889 18.9179 31.1984 19.7502C31.1905 19.8271 31.1777 19.9642 31.1777 20.045V21.9177C31.1777 21.9984 31.1797 22.0617 31.1936 22.2112C31.2582 22.9884 31.8577 23.2849 32.5465 23.3085L33.9931 22.6018C34.0407 22.4881 34.0725 22.3582 34.086 22.2112C34.0971 22.0617 34.0982 21.9984 34.1011 21.9177V20.8264C34.1011 20.7698 34.0585 20.7239 34.0059 20.7239H32.7362C32.6862 20.7238 32.6456 20.7675 32.6456 20.8213Z" fill="#F2F2F2"/>
<path d="M8.27676 21.6514C8.10416 20.7161 6.54378 20.4401 6.4267 19.9184C6.40766 19.8291 6.412 19.7343 6.42274 19.6851C6.45169 19.5429 6.5402 19.3847 6.7985 19.3847C7.04011 19.3847 7.18179 19.5471 7.18179 19.7898V19.9677C7.18179 20.0214 7.22224 20.065 7.27221 20.065H8.07788C8.1494 20.065 8.20737 20.0026 8.20737 19.9256V19.7514C8.20737 18.7841 7.40117 18.6294 6.81914 18.6294C6.73147 18.6294 6.64577 18.6328 6.5632 18.6414L5.59353 19.0994C5.48758 19.237 5.41461 19.4071 5.38284 19.6186C5.35268 19.8185 5.34788 19.9937 5.39114 20.2189C5.56885 21.1286 7.0309 21.393 7.24357 21.9681C7.28325 22.0759 7.27053 22.2126 7.25111 22.2968C7.21737 22.4472 7.12451 22.5976 6.84961 22.5976C6.59329 22.5976 6.43896 22.436 6.43896 22.1929L6.43767 21.8532C6.43752 21.8041 6.4005 21.7644 6.35487 21.7644H5.44538C5.38414 21.7644 5.33447 21.8179 5.33447 21.8838V22.1049C5.33447 23.1 6.0562 23.3995 6.82866 23.3995C7.57217 23.3995 8.18277 23.1256 8.28194 22.3804C8.33153 21.9967 8.29421 21.7454 8.27676 21.6514Z" fill="#F2F2F2"/>
<path d="M11.2078 23.1311L10.689 19.3141C10.6841 19.2778 10.6356 19.2777 10.6305 19.314L10.0971 23.144C10.0908 23.1897 10.0543 23.2234 10.0114 23.2234H9.05773C9.015 23.2234 8.9827 23.1816 8.9904 23.1363L9.71388 18.9075C9.72743 18.8284 9.79157 18.7709 9.8663 18.7709H11.4569C11.5195 18.7709 11.5732 18.819 11.5846 18.8854L12.3081 23.1326C12.3162 23.1798 12.2825 23.2235 12.2378 23.2235H11.3068C11.2572 23.2233 11.2151 23.1841 11.2078 23.1311Z" fill="#F2F2F2"/>
<path d="M16.6845 23.0783L16.6588 19.3116C16.6586 19.2873 16.626 19.2842 16.6219 19.3081L15.9657 23.1317C15.9566 23.1848 15.9136 23.2233 15.8635 23.2233H15.036C14.9612 23.2233 14.8971 23.1658 14.8835 23.0866L14.2395 19.33C14.235 19.3036 14.1989 19.3071 14.1987 19.3339L14.1728 23.1351C14.1725 23.1839 14.1356 23.2233 14.0902 23.2233H13.2529C13.1933 23.2233 13.1452 23.1705 13.1465 23.1063L13.2312 18.9016C13.2327 18.8289 13.2878 18.7708 13.3554 18.7708H14.7959C14.8622 18.7708 14.9186 18.8226 14.9292 18.8931L15.3895 21.9808C15.3969 22.0302 15.4628 22.0302 15.4702 21.9808L15.932 18.8834C15.9417 18.8185 15.9937 18.7708 16.0547 18.7708H17.5354C17.5846 18.7708 17.6248 18.8132 17.6259 18.8662L17.7132 23.0701C17.7149 23.1542 17.6521 23.2234 17.574 23.2234H16.8203C16.7457 23.2233 16.6851 23.1586 16.6845 23.0783Z" fill="#F2F2F2"/>
<path d="M21.638 22.3676C21.5408 23.1047 20.9342 23.3751 20.1989 23.3751C19.4324 23.3751 18.7202 23.079 18.7202 22.095V21.8479C18.7202 21.7966 18.7589 21.7549 18.8066 21.7549H19.71C19.7664 21.7549 19.8121 21.8041 19.8121 21.8649V22.1822C19.8121 22.4223 19.9665 22.5817 20.222 22.5817C20.4954 22.5817 20.587 22.4334 20.6184 22.2856C20.6375 22.2035 20.6477 22.066 20.6109 21.9583C20.4014 21.3895 18.9541 21.1281 18.7779 20.2278C18.7323 20.0052 18.739 19.8305 18.7676 19.6343C18.8767 18.9135 19.4678 18.6545 20.1916 18.6545C20.7676 18.6545 21.5615 18.8049 21.5615 19.765V19.9511C21.5615 20.0189 21.5105 20.0738 21.4476 20.0738H20.6527C20.5946 20.0738 20.5475 20.0232 20.5475 19.9606V19.8022C20.5475 19.5625 20.4083 19.4018 20.171 19.4018C19.9163 19.4018 19.8278 19.5573 19.7976 19.6996C19.7881 19.7479 19.7837 19.8415 19.8016 19.9304C19.9186 20.4448 21.4608 20.7225 21.6306 21.6463C21.649 21.7391 21.684 21.9869 21.638 22.3676Z" fill="#F2F2F2"/>
<path d="M25.4951 22.2569C25.4222 23.0887 24.8175 23.3584 24.0601 23.3584C23.3034 23.3584 22.6984 23.0887 22.627 22.2569C22.6222 22.2124 22.6167 22.0449 22.6178 21.963V18.9418C22.6178 18.8474 22.6889 18.7709 22.7766 18.7709H23.5135C23.5929 18.7709 23.6573 18.8403 23.6573 18.9258V22.0651C23.6554 22.1219 23.6573 22.1873 23.6676 22.2343C23.6875 22.3446 23.7763 22.5573 24.06 22.5573C24.3469 22.5573 24.4329 22.3446 24.4548 22.2343C24.4639 22.1873 24.4659 22.1219 24.4639 22.0651V18.9074C24.4639 18.832 24.5207 18.7709 24.5907 18.7709H25.3618C25.44 18.7709 25.5034 18.8391 25.5034 18.9233V21.963C25.5079 22.0449 25.5015 22.2124 25.4951 22.2569Z" fill="#F2F2F2"/>
<path d="M29.9687 23.1768H28.7301C28.6743 23.1768 28.6251 23.1375 28.609 23.08L27.6644 19.7225C27.6532 19.6829 27.5989 19.6921 27.5996 19.7334L27.652 23.0335C27.6532 23.1122 27.5944 23.1767 27.5214 23.1767H26.7744C26.703 23.1767 26.645 23.1143 26.645 23.0373V18.9189C26.645 18.837 26.7066 18.7707 26.7826 18.7707H28.0354C28.1157 18.7707 28.1864 18.8278 28.2088 18.9108L29.0937 22.1879C29.1008 22.2141 29.1367 22.2082 29.1363 22.181L29.0862 18.9222C29.0849 18.839 29.1473 18.7706 29.2246 18.7706H29.9951C30.053 18.7706 30.0999 18.8212 30.0999 18.8836V23.0354C30.0997 23.1136 30.0411 23.1768 29.9687 23.1768Z" fill="#F2F2F2"/>
</g>
<defs>
<clipPath id="clip0">
<rect width="39" height="42" fill="white"/>
</clipPath>
</defs>
</svg>
