<svg width="41" height="41" viewBox="0 0 41 41" fill="none" xmlns="http://www.w3.org/2000/svg">
<g clip-path="url(#clip0)">
<path d="M0.0800781 6.80472V28.8634C0.0800781 30.8253 1.67038 32.4156 3.63229 32.4156H37.4719C39.4338 32.4156 41.0241 30.8253 41.0241 28.8634V6.80472C41.0241 4.86345 39.4507 3.29004 37.5094 3.29004H3.59476C1.65349 3.29004 0.0800781 4.86345 0.0800781 6.80472Z" fill="#8B75C8"/>
<path d="M28.8105 37.1558L20.5522 39.0376L12.2932 37.1558L13.4246 32.4161L20.2015 29.9243L27.6791 32.4161L28.0451 33.9504L28.8105 37.1558Z" fill="#2D303B"/>
<path d="M41.0244 28.4453V28.8632C41.0244 30.8251 39.4335 32.4161 37.4716 32.4161H3.63229C1.67037 32.4161 0.0803833 30.8251 0.0803833 28.8632V28.4453H41.0244Z" fill="#3C3F4D"/>
<path d="M28.8106 37.1555H16.1789L16.9444 33.9502H28.0452L28.8106 37.1555Z" fill="#3C3F4D"/>
<path d="M33.6778 39.7946V40.92H7.42691V39.7946C7.42691 38.3372 8.60838 37.1558 10.0657 37.1558H31.039C32.4964 37.1558 33.6778 38.3372 33.6778 39.7946Z" fill="#2D303B"/>
<path d="M33.6778 39.7946V40.92H11.9381V39.7946C11.9381 38.3372 13.1196 37.1558 14.5779 37.1558H31.0389C32.4963 37.1558 33.6778 38.3372 33.6778 39.7946Z" fill="#3C3F4D"/>
<path d="M7.51327 7.93848H24.2374L26.3682 28.445H5.38275L7.51327 7.93848Z" fill="#FF491F"/>
<path d="M15.7362 14.5688H27.3616L28.8424 28.4452H14.2554L15.7362 14.5688Z" fill="#ED3618"/>
<path d="M17.3239 14.5688H28.949L30.4302 28.4452H15.8428L17.3239 14.5688Z" fill="#FFE14D"/>
<path d="M20.3873 10.5711C20.041 10.5711 19.7608 10.2906 19.7608 9.94428V5.80868C19.7608 3.66628 18.0178 1.92333 15.8754 1.92333C13.733 1.92333 11.9901 3.66628 11.9901 5.80868V9.94428C11.9901 10.2902 11.7095 10.5708 11.3635 10.5708C11.0172 10.5708 10.7367 10.2902 10.7367 9.94428V5.80868C10.7367 2.97498 13.042 0.669922 15.8754 0.669922C18.7088 0.669922 21.0142 2.9753 21.0142 5.80868V9.94428C21.0142 10.2906 20.7336 10.5711 20.3873 10.5711Z" fill="#3C3F4D"/>
<path d="M23.1367 23.1154C21.3053 23.1154 19.8154 21.6255 19.8154 19.794V17.0995C19.8154 16.7532 20.096 16.4727 20.4422 16.4727C20.7882 16.4727 21.0688 16.7532 21.0688 17.0995V19.794C21.0688 20.9345 21.9966 21.862 23.1367 21.862C24.2769 21.862 25.2047 20.9345 25.2047 19.794V17.0995C25.2047 16.7532 25.4853 16.4727 25.8316 16.4727C26.1775 16.4727 26.4581 16.7532 26.4581 17.0995V19.794C26.4581 21.6255 24.9682 23.1154 23.1367 23.1154Z" fill="white"/>
<path d="M38.1 6.04621C38.1 9.42983 35.357 12.1725 31.9737 12.1725C28.5901 12.1725 25.8474 9.42983 25.8474 6.04621C25.8474 2.66291 28.5901 -0.0800781 31.9737 -0.0800781C35.357 -0.0800781 38.1 2.66291 38.1 6.04621Z" fill="#32CC77"/>
<path d="M31.3316 9.76068C31.1045 9.76068 30.8946 9.63743 30.7839 9.43817L29.1126 6.42993C28.9446 6.12744 29.0534 5.74582 29.3562 5.57784C29.659 5.40987 30.0403 5.51872 30.2083 5.82152L31.2947 7.77655L33.6927 2.84361C33.8437 2.53237 34.2185 2.40256 34.5303 2.55396C34.8416 2.70535 34.9711 3.08041 34.8197 3.39165L31.8953 9.40783C31.793 9.61804 31.5825 9.75379 31.3488 9.76036C31.3432 9.76036 31.3375 9.76068 31.3316 9.76068Z" fill="white"/>
<path d="M38.7316 17.1147H32.7154C32.3694 17.1147 32.0888 16.8342 32.0888 16.4882C32.0888 16.1419 32.3694 15.8613 32.7154 15.8613H38.7316C39.0779 15.8613 39.3581 16.1419 39.3581 16.4882C39.3581 16.8342 39.0775 17.1147 38.7316 17.1147Z" fill="#3C3F4D"/>
<path d="M38.7317 20.0396H33.9693C33.623 20.0396 33.3424 19.759 33.3424 19.413C33.3424 19.0667 33.623 18.7861 33.9693 18.7861H38.7317C39.078 18.7861 39.3583 19.0667 39.3583 19.413C39.3583 19.759 39.0777 20.0396 38.7317 20.0396Z" fill="#3C3F4D"/>
</g>
<defs>
<clipPath id="clip0">
<rect width="41" height="41" fill="white"/>
</clipPath>
</defs>
</svg>
