<svg width="49" height="49" viewBox="0 0 49 49" fill="none" xmlns="http://www.w3.org/2000/svg">
<g clip-path="url(#clip0_134_308)">
<path d="M39.3149 48.9042H2.00977L5.79677 12.45H35.5268L36.159 18.5338L39.3149 48.9042Z" fill="#8B75C8"/>
<path d="M21.1687 24.2373H41.8342L44.4672 48.9044H18.5358L21.1687 24.2373Z" fill="#ED3618"/>
<path d="M23.2367 24.2373H43.9022L46.5352 48.9044H20.6041L23.2367 24.2373Z" fill="#FFE14D"/>
<path d="M36.1589 18.5338C33.4919 17.68 31.4982 15.3173 31.1853 12.45H35.5267L36.1589 18.5338Z" fill="#ED3618"/>
<path d="M47.062 11.6559C47.062 15.644 43.829 18.8774 39.8409 18.8774C35.8527 18.8774 32.6198 15.644 32.6198 11.6559C32.6198 7.66779 35.8527 4.43481 39.8409 4.43481C43.829 4.43481 47.062 7.66779 47.062 11.6559Z" fill="#32CC77"/>
<path d="M39.2665 16.0949C38.9989 16.0949 38.7514 15.9499 38.6209 15.7151L36.6511 12.1692C36.453 11.8126 36.5812 11.3628 36.9379 11.1647C37.2949 10.9666 37.7446 11.0952 37.9428 11.4518L39.2232 13.7565L42.0494 7.94183C42.2277 7.5751 42.6696 7.42182 43.0367 7.60052C43.4038 7.77884 43.5567 8.22072 43.378 8.58783L39.9308 15.6792C39.8105 15.9271 39.5622 16.0871 39.2867 16.0945C39.28 16.0949 39.2733 16.0949 39.2665 16.0949Z" fill="#E5E5E5"/>
<path d="M28.6824 16.7544C28.2742 16.7544 27.9437 16.4236 27.9437 16.0157V8.66375C27.9437 4.64833 24.6771 1.38171 20.6617 1.38171C16.6463 1.38171 13.3796 4.64833 13.3796 8.66375V16.0157C13.3796 16.4236 13.0488 16.7544 12.6409 16.7544C12.2331 16.7544 11.9022 16.4236 11.9022 16.0157V8.66375C11.9022 3.83373 15.8317 -0.0957031 20.6617 -0.0957031C25.4917 -0.0957031 29.4211 3.83373 29.4211 8.66375V16.0157C29.4211 16.4236 29.0903 16.7544 28.6824 16.7544Z" fill="#3C3F4D"/>
<path d="M33.5697 39.0544C30.5211 39.0544 28.041 36.5744 28.041 33.5257V28.7353C28.041 28.3274 28.3715 27.9966 28.7793 27.9966C29.1876 27.9966 29.5181 28.3274 29.5181 28.7353V33.5257C29.5181 35.7594 31.3357 37.577 33.5697 37.577C35.8038 37.577 37.621 35.7594 37.621 33.5257V28.7353C37.621 28.3274 37.9519 27.9966 38.3597 27.9966C38.768 27.9966 39.0985 28.3274 39.0985 28.7353V33.5257C39.0985 36.5744 36.6184 39.0544 33.5697 39.0544Z" fill="#3C3F4D"/>
</g>
<defs>
<clipPath id="clip0_134_308">
<rect width="49" height="49" fill="white"/>
</clipPath>
</defs>
</svg>
