<svg width="55" height="55" viewBox="0 0 55 55" fill="none" xmlns="http://www.w3.org/2000/svg">
<g clip-path="url(#clip0_134_349)">
<path d="M28.5813 35.3677V50.0371C28.5813 51.677 27.2524 53.0059 25.6121 53.0059H2.97208C1.33222 53.0059 0.0032959 51.677 0.0032959 50.0371V35.3677C0.0032959 33.7279 1.33222 32.3989 2.97208 32.3989H25.6121C27.2524 32.3989 28.5813 33.7279 28.5813 35.3677Z" fill="#8B75C8"/>
<path d="M28.5813 35.3677V38.9139H0.0032959V35.3677C0.0032959 33.7279 1.33222 32.3989 2.97208 32.3989H25.6121C27.2524 32.3989 28.5813 33.7279 28.5813 35.3677Z" fill="#83B2C6"/>
<path d="M3.93528 36.725C3.60504 36.725 3.29956 36.5244 3.16529 36.2235C3.01506 35.887 3.10906 35.4779 3.39062 35.2404C3.96843 34.7528 4.88194 35.2513 4.76822 36.0062C4.70696 36.4136 4.34818 36.725 3.93528 36.725Z" fill="#E6E6E6"/>
<path d="M9.66428 36.7235C8.9052 36.7235 8.53761 35.7534 9.1041 35.2515C9.68065 34.7409 10.6088 35.2444 10.4976 36.0031C10.4376 36.4109 10.0776 36.7235 9.66428 36.7235Z" fill="#E6E6E6"/>
<path d="M6.79951 36.7236C6.4399 36.7236 6.11259 36.4869 6.00014 36.1454C5.8881 35.8034 6.00979 35.4102 6.30478 35.2C6.92665 34.7564 7.80784 35.3326 7.61608 36.0862C7.52167 36.4563 7.1822 36.7236 6.79951 36.7236Z" fill="#E6E6E6"/>
<path d="M49.1367 46.2278H46.5342C46.0689 46.2278 45.6917 45.8506 45.6917 45.3852C45.6917 44.9199 46.0689 44.5426 46.5342 44.5426H49.1367C49.4753 44.5426 49.751 44.2673 49.751 43.9287V42.6065C49.751 42.1412 50.1283 41.7639 50.5936 41.7639C51.059 41.7639 51.4362 42.1412 51.4362 42.6065V43.9287C51.4358 45.1964 50.4044 46.2278 49.1367 46.2278Z" fill="#8B75C8"/>
<path d="M51.4357 34.5186H49.7506V22.8361C49.7506 22.5734 49.743 22.3099 49.7279 22.0526L51.4101 21.9536C51.4269 22.2436 51.4357 22.5407 51.4357 22.8361V34.5186Z" fill="#8B75C8"/>
<path d="M23.7325 33.7946H22.0477V26.7622C22.0477 18.6599 28.6391 12.0681 36.7414 12.0681C39.3951 12.0681 41.9946 12.7831 44.2597 14.1351C44.2757 14.1448 44.2912 14.1549 44.3063 14.1654L47.0753 16.0763L46.1182 17.4631L43.3722 15.5681C41.374 14.3806 39.0816 13.7533 36.7414 13.7533C29.5685 13.7533 23.7325 19.5893 23.7325 26.7622V33.7946Z" fill="#8B75C8"/>
<path d="M47.4045 23.7344V38.5896C47.4045 44.4785 42.6305 49.2525 36.7416 49.2525C30.8527 49.2525 26.0787 44.4785 26.0787 38.5896V27.9263" fill="#FFDCB6"/>
<path d="M36.6661 49.252C33.7514 49.2323 31.1154 48.0427 29.2015 46.1297C27.2721 44.1994 26.0787 41.5344 26.0787 38.5896V27.9263H30.8792V38.5896C30.8792 41.5344 31.535 44.1994 32.5962 46.1297C33.6406 48.0293 35.077 49.2151 36.6661 49.252Z" fill="#EDC59D"/>
<path d="M36.7416 44.2507C35.609 44.2507 34.4765 43.8194 33.6146 42.9575C33.2852 42.6285 33.2852 42.0948 33.6146 41.7658C33.9436 41.4368 34.4769 41.4368 34.8059 41.7658C35.873 42.8333 37.6102 42.8333 38.6773 41.7658C39.0063 41.4368 39.54 41.4368 39.869 41.7658C40.198 42.0948 40.198 42.6285 39.869 42.9575C39.0067 43.8194 37.8741 44.2507 36.7416 44.2507Z" fill="#FF491F"/>
<path d="M41.4632 37.6824C40.9978 37.6824 40.6206 37.3052 40.6206 36.8398V34.4312C40.6206 33.9659 40.9978 33.5886 41.4632 33.5886C41.9281 33.5886 42.3054 33.9659 42.3054 34.4312V36.8398C42.3054 37.3052 41.9281 37.6824 41.4632 37.6824Z" fill="#2D303B"/>
<path d="M32.0204 37.6824C31.5551 37.6824 31.1779 37.3052 31.1779 36.8398V34.4312C31.1779 33.9659 31.5551 33.5886 32.0204 33.5886C32.4854 33.5886 32.8626 33.9659 32.8626 34.4312V36.8398C32.8626 37.3052 32.4854 37.6824 32.0204 37.6824Z" fill="#2D303B"/>
<path d="M52.1468 14.3479C50.4365 14.3429 49.0484 15.7276 49.0484 17.4367C49.0484 15.731 47.6657 14.3479 45.9596 14.3479C44.2538 14.3479 42.8712 15.731 42.8712 17.4367H33.0694C29.3331 17.4367 26.3043 20.4655 26.3043 24.2022V32.7662C30.2386 32.8505 29.6071 28.0732 29.6071 28.0732H44.5895C50.4281 28.0732 55.1681 23.3688 55.2256 17.5437C55.2423 15.8279 53.8626 14.3534 52.1468 14.3479Z" fill="#3C3F4D"/>
<path d="M46.4705 14.3036C46.2187 14.2368 45.954 14.2012 45.6812 14.2012C43.975 14.2012 42.5924 15.5842 42.5924 17.29H44.1714C44.1714 15.8574 45.1475 14.6527 46.4705 14.3036Z" fill="#2D303B"/>
<path d="M52.7014 14.3036C52.4492 14.2368 52.1848 14.2012 51.9117 14.2012C50.2059 14.2012 48.8229 15.5842 48.8229 17.29H50.4023C50.4023 15.8574 51.3779 14.6527 52.7014 14.3036Z" fill="#2D303B"/>
<path d="M32.8434 17.2898H35.5507C31.8149 17.2898 28.7857 20.319 28.7857 24.0549V31.284C28.3098 32.0569 27.4861 32.6494 26.0787 32.6192V24.0549C26.0787 20.319 29.1075 17.2898 32.8434 17.2898Z" fill="#2D303B"/>
<path d="M26.0786 33.7946V40.3923C26.0786 41.4069 25.3963 42.2621 24.4652 42.5231C24.2739 42.5776 24.0725 42.6066 23.8643 42.6066H23.0037C21.7809 42.6066 20.7898 41.615 20.7898 40.3923V33.7946C20.7898 32.5719 21.7809 31.5803 23.0037 31.5803H23.8643C24.0725 31.5803 24.2739 31.6089 24.4652 31.6638C25.3963 31.9248 26.0786 32.78 26.0786 33.7946Z" fill="#ED3618"/>
<path d="M26.0787 33.7946V40.3923C26.0787 41.4069 25.3964 42.2621 24.4653 42.5231C23.5337 42.2621 22.8514 41.4069 22.8514 40.3923V33.7946C22.8514 32.78 23.5337 31.9248 24.4653 31.6638C25.3964 31.9248 26.0787 32.78 26.0787 33.7946Z" fill="#FF491F"/>
<path d="M52.6937 33.7946V40.3923C52.6937 41.4069 52.0114 42.2621 51.0798 42.5231C50.8889 42.5776 50.6875 42.6066 50.4794 42.6066H49.6187C48.396 42.6066 47.4044 41.615 47.4044 40.3923V33.7946C47.4044 32.5719 48.396 31.5803 49.6187 31.5803H50.4794C50.6875 31.5803 50.8889 31.6089 51.0798 31.6638C52.0114 31.9248 52.6937 32.78 52.6937 33.7946Z" fill="#ED3618"/>
<path d="M52.6938 33.7946V40.3923C52.6938 41.4069 52.0115 42.2621 51.08 42.5231C50.1488 42.2621 49.4666 41.4069 49.4666 40.3923V33.7946C49.4666 32.78 50.1488 31.9248 51.08 31.6638C52.0115 31.9248 52.6938 32.78 52.6938 33.7946Z" fill="#FF491F"/>
<path d="M44.024 43.5029H44.6517C45.6911 43.5029 46.5341 44.3459 46.5341 45.3853C46.5341 46.4251 45.6911 47.2682 44.6517 47.2682H44.024C42.9846 47.2682 42.1416 46.4251 42.1416 45.3853C42.1416 44.3455 42.9846 43.5029 44.024 43.5029Z" fill="#3C3F4D"/>
<path d="M2.74052 2.04102H19.0519C20.5654 2.04102 21.7928 3.26797 21.7928 4.78153V17.6411C21.7928 19.1547 20.5654 20.3816 19.0519 20.3816H17.4477V26.6725L11.1568 20.3816H2.74052C1.22696 20.3816 0 19.1547 0 17.6411V4.78153C0 3.26797 1.22696 2.04102 2.74052 2.04102Z" fill="#8B75C8"/>
<path d="M5.05515 43.2411H3.03302C2.56767 43.2411 2.19043 42.8639 2.19043 42.3985C2.19043 41.9331 2.56767 41.5559 3.03302 41.5559H5.05515C5.52051 41.5559 5.89732 41.9331 5.89732 42.3985C5.89732 42.8639 5.52051 43.2411 5.05515 43.2411Z" fill="#FF491F"/>
<path d="M15.3894 43.2411H7.75116C7.2858 43.2411 6.90857 42.8639 6.90857 42.3985C6.90857 41.9331 7.2858 41.5559 7.75116 41.5559H15.3894C15.8548 41.5559 16.232 41.9331 16.232 42.3985C16.232 42.8639 15.8548 43.2411 15.3894 43.2411Z" fill="#3C3F4D"/>
<path d="M5.05515 46.6674H3.03302C2.56767 46.6674 2.19043 46.2901 2.19043 45.8248C2.19043 45.3594 2.56767 44.9822 3.03302 44.9822H5.05515C5.52051 44.9822 5.89732 45.3594 5.89732 45.8248C5.89732 46.2901 5.52051 46.6674 5.05515 46.6674Z" fill="#FFE14D"/>
<path d="M15.3894 46.6674H7.75116C7.2858 46.6674 6.90857 46.2901 6.90857 45.8248C6.90857 45.3594 7.2858 44.9822 7.75116 44.9822H15.3894C15.8548 44.9822 16.232 45.3594 16.232 45.8248C16.232 46.2901 15.8548 46.6674 15.3894 46.6674Z" fill="#3C3F4D"/>
<path d="M5.05515 50.0934H3.03302C2.56767 50.0934 2.19043 49.7161 2.19043 49.2508C2.19043 48.7854 2.56767 48.4082 3.03302 48.4082H5.05515C5.52051 48.4082 5.89732 48.7854 5.89732 49.2508C5.89732 49.7161 5.52051 50.0934 5.05515 50.0934Z" fill="#FFE14D"/>
<path d="M15.3894 50.0934H7.75116C7.2858 50.0934 6.90857 49.7161 6.90857 49.2508C6.90857 48.7854 7.2858 48.4082 7.75116 48.4082H15.3894C15.8548 48.4082 16.232 48.7854 16.232 49.2508C16.232 49.7161 15.8548 50.0934 15.3894 50.0934Z" fill="#3C3F4D"/>
<path d="M11.7634 10.4085V7.93491C12.1788 7.99953 12.4571 8.14052 12.6815 8.25423C12.8729 8.35159 13.0244 8.42796 13.1931 8.42796C13.7323 8.42796 13.9656 7.76748 13.9656 7.43053C13.9656 6.71004 12.833 6.37729 11.7634 6.30428V6.15028C11.7634 5.77472 11.4579 5.46924 11.082 5.46924C10.7064 5.46924 10.4009 5.77472 10.4009 6.15028V6.3475C8.76443 6.61983 7.82658 7.61768 7.82658 9.08843C7.82658 10.8961 9.30867 11.4639 10.4009 11.8747V14.65C9.79333 14.5359 9.39889 14.23 9.08082 13.9828C8.82317 13.7835 8.62008 13.6257 8.38845 13.6257C7.92393 13.6257 7.57397 14.2392 7.57397 14.637C7.57397 15.3907 8.73338 16.2945 10.4009 16.3969V16.4703C10.4009 16.6801 10.4979 16.8761 10.6649 17.0049C10.7635 17.0981 10.9066 17.1514 11.0576 17.1514C11.061 17.1514 11.0648 17.1509 11.0723 17.1505L11.0824 17.1514C11.4579 17.1514 11.7634 16.8459 11.7634 16.4703V16.3205C13.324 15.9886 14.2186 14.9102 14.2186 13.3585C14.2186 11.6028 13.0412 10.9012 11.7634 10.4085ZM12.4487 13.5414C12.4487 14.0189 12.212 14.3701 11.7634 14.5598V12.4521C12.2368 12.7294 12.4487 13.0672 12.4487 13.5414ZM10.4009 8.01631V9.89032C9.97838 9.69772 9.59695 9.44007 9.59695 8.90548C9.59695 8.47705 9.87473 8.17031 10.4009 8.01631Z" fill="#32CC77"/>
<path d="M52.2347 4.03681H31.7902C31.3248 4.03681 30.948 3.65958 30.948 3.19422C30.948 2.72887 31.3248 2.35205 31.7902 2.35205H52.2347C52.7001 2.35205 53.0773 2.72887 53.0773 3.19422C53.0773 3.65958 52.7001 4.03681 52.2347 4.03681Z" fill="#3C3F4D"/>
<path d="M52.2346 7.45063H37.1821C36.7167 7.45063 36.3395 7.07339 36.3395 6.60804C36.3395 6.1431 36.7167 5.76587 37.1821 5.76587H52.2346C52.6999 5.76587 53.0771 6.1431 53.0771 6.60804C53.0771 7.07339 52.6999 7.45063 52.2346 7.45063Z" fill="#2D303B"/>
</g>
<defs>
<clipPath id="clip0_134_349">
<rect width="55" height="55" fill="white"/>
</clipPath>
</defs>
</svg>
