<svg width="50" height="50" viewBox="0 0 50 50" fill="none" xmlns="http://www.w3.org/2000/svg">
<g clip-path="url(#clip0)">
<path d="M47.9396 50H2.06045C0.922461 50 0 49.0776 0 47.9396V7.69229C0 6.55439 0.922461 5.63184 2.06045 5.63184H47.9396C49.0775 5.63184 50.0001 6.5543 50.0001 7.69229V47.9396C50 49.0776 49.0775 50 47.9396 50Z" fill="url(#paint0_linear)"/>
<path d="M0 13.3241V7.69229C0 6.55488 0.923047 5.63184 2.06045 5.63184H47.9396C49.0771 5.63184 50.0001 6.55488 50.0001 7.69229V13.3241H0Z" fill="url(#paint1_linear)"/>
<path d="M36.332 5.49443L38.5984 7.76093H36.332V5.49443Z" fill="url(#paint2_linear)"/>
<path d="M49.9994 14.4231V47.9397C49.9994 49.0771 49.0763 50.0001 47.939 50.0001H11.9499L5.76855 43.8188L5.93613 43.7968C6.18057 43.8998 6.44853 43.9562 6.73008 43.9562H41.8949C43.0323 43.9562 43.9554 43.033 43.9554 41.8957V9.06592C43.9554 8.8585 43.9252 8.65938 43.8675 8.4711L43.9554 8.3791L49.9994 14.4231Z" fill="url(#paint3_linear)"/>
<path d="M50 42.3077V47.9395C50 49.0769 49.0769 50 47.9396 50H2.06045C0.923047 50 0 49.0769 0 47.9395V42.3077H50Z" fill="url(#paint4_linear)"/>
<path d="M44.6421 9.75274V42.5824C44.6421 43.7198 43.7189 44.6429 42.5816 44.6429H7.41689C6.27949 44.6429 5.35645 43.7197 5.35645 42.5824V9.75274C5.35645 8.61534 6.27949 7.69229 7.41689 7.69229H42.5816C43.7191 7.69229 44.6421 8.61544 44.6421 9.75274Z" fill="url(#paint5_linear)"/>
<path d="M34.2699 44.6428H7.41689C6.279 44.6428 5.35645 43.7203 5.35645 42.5823V9.75274C5.35645 8.61485 6.27891 7.69229 7.41689 7.69229H42.5816C43.7195 7.69229 44.6421 8.61475 44.6421 9.75274V34.8102C44.6421 35.1255 44.5181 35.428 44.2968 35.6528L36.2593 43.8103C35.7344 44.3429 35.0178 44.6428 34.2699 44.6428Z" fill="url(#paint6_linear)"/>
<path d="M44.6421 40.9341V42.5824C44.6421 43.7198 43.7189 44.6429 42.5816 44.6429H7.41689C6.27949 44.6429 5.35645 43.7197 5.35645 42.5824V40.9341H44.6421Z" fill="url(#paint7_linear)"/>
<path d="M34.4784 3.9835H29.0513C29.0142 1.77754 27.2147 0 25.0004 0C22.7861 0 20.9866 1.77754 20.9495 3.9835H15.5224C14.385 3.9835 13.4619 4.90654 13.4619 6.04395V8.79121C13.4619 9.92861 14.385 10.8517 15.5224 10.8517H34.4784C35.6158 10.8517 36.5389 9.92852 36.5389 8.79121V6.04395C36.5389 4.90654 35.6158 3.9835 34.4784 3.9835ZM25.0004 5.63184C24.1281 5.63184 23.4207 4.92441 23.4207 4.05215C23.4207 3.17988 24.1281 2.47246 25.0004 2.47246C25.8727 2.47246 26.5801 3.17988 26.5801 4.05215C26.5801 4.92441 25.8727 5.63184 25.0004 5.63184Z" fill="url(#paint8_linear)"/>
<path d="M44.6421 27.1979V9.75274C44.6421 8.61485 43.7196 7.69229 42.5816 7.69229H38.5982H7.41689C6.279 7.69229 5.35645 8.61475 5.35645 9.75274V27.1979C5.35654 27.323 44.6421 27.1979 44.6421 27.1979Z" fill="url(#paint9_linear)"/>
<path d="M44.6429 13.7362V40.6594L14.5605 10.5769V7.69229H38.5989L44.6429 13.7362Z" fill="url(#paint10_linear)"/>
<path d="M34.4784 3.9835H29.0513C29.0142 1.77754 27.2147 0 25.0004 0C22.7861 0 20.9866 1.77754 20.9495 3.9835H15.5224C14.385 3.9835 13.4619 4.90654 13.4619 6.04395V8.79121C13.4619 9.92861 14.385 10.8517 15.5224 10.8517H34.4784C35.6158 10.8517 36.5389 9.92852 36.5389 8.79121V6.04395C36.5389 4.90654 35.6158 3.9835 34.4784 3.9835ZM25.0004 5.63184C24.1281 5.63184 23.4207 4.92441 23.4207 4.05215C23.4207 3.17988 24.1281 2.47246 25.0004 2.47246C25.8727 2.47246 26.5801 3.17988 26.5801 4.05215C26.5801 4.92441 25.8727 5.63184 25.0004 5.63184Z" fill="url(#paint11_linear)"/>
<path d="M34.4784 3.9835H29.0513C29.0142 1.77754 27.2147 0 25.0004 0C22.7861 0 20.9866 1.77754 20.9495 3.9835H15.5224C14.385 3.9835 13.4619 4.90654 13.4619 6.04395V8.79121C13.4619 9.92861 14.385 10.8517 15.5224 10.8517H34.4784C35.6158 10.8517 36.5389 9.92852 36.5389 8.79121V6.04395C36.5389 4.90654 35.6158 3.9835 34.4784 3.9835ZM25.0004 5.63184C24.1281 5.63184 23.4207 4.92441 23.4207 4.05215C23.4207 3.17988 24.1281 2.47246 25.0004 2.47246C25.8727 2.47246 26.5801 3.17988 26.5801 4.05215C26.5801 4.92441 25.8727 5.63184 25.0004 5.63184Z" fill="url(#paint12_linear)"/>
<path d="M38.2556 17.9948H11.7451V19.5058H38.2556V17.9948Z" fill="#C2CECE"/>
<path d="M38.2556 23.7636H11.7451V25.2745H38.2556V23.7636Z" fill="#C2CECE"/>
<path d="M38.2556 29.5333H11.7451V31.0442H38.2556V29.5333Z" fill="#C2CECE"/>
<path d="M32.6931 35.302H11.7451V36.813H32.6931V35.302Z" fill="#C2CECE"/>
<path d="M27.1635 4.32686C27.1635 5.35157 26.3338 6.18125 25.3091 6.18125C24.3049 6.18125 23.489 5.38594 23.4561 4.39004C23.6112 5.1003 24.2432 5.63184 25 5.63184C25.8723 5.63184 26.5797 4.92442 26.5797 4.05215C26.5797 3.23067 25.952 2.55489 25.1512 2.4793C25.2033 2.4751 25.2556 2.47247 25.3092 2.47247C26.3338 2.47247 27.1635 3.30215 27.1635 4.32686Z" fill="url(#paint13_linear)"/>
<path d="M44.5372 35.3022C44.5372 35.3022 44.4763 35.4745 44.2367 35.7143C44.1477 35.8032 36.3071 43.7622 36.3071 43.7622C35.752 44.3257 34.9941 44.6429 34.2031 44.6429C34.8859 44.6429 35.4394 44.0894 35.4394 43.4066V37.3627C35.4394 36.2248 36.3618 35.3023 37.4998 35.3023H44.5372V35.3022Z" fill="url(#paint14_linear)"/>
</g>
<defs>
<linearGradient id="paint0_linear" x1="-6.71387e-06" y1="27.8151" x2="50.0016" y2="27.8151" gradientUnits="userSpaceOnUse">
<stop stop-color="#8B75C8"/>
<stop offset="1" stop-color="#0BBFBA"/>
</linearGradient>
<linearGradient id="paint1_linear" x1="25.0008" y1="8.81004" x2="25.0008" y2="6.29746" gradientUnits="userSpaceOnUse">
<stop offset="0.0001" stop-color="#8B75C8"/>
<stop offset="0.104" stop-color="#8B75C8"/>
<stop offset="1" stop-color="#8B75C8"/>
</linearGradient>
<linearGradient id="paint2_linear" x1="38.949" y1="9.24208" x2="37.4521" y2="7.74516" gradientUnits="userSpaceOnUse">
<stop offset="0.0001" stop-color="#8B75C8"/>
<stop offset="1" stop-color="#8B75C8"/>
</linearGradient>
<linearGradient id="paint3_linear" x1="52.2927" y1="53.5271" x2="25.5919" y2="26.8273" gradientUnits="userSpaceOnUse">
<stop offset="0.0001" stop-color="#8B75C8"/>
<stop offset="1" stop-color="#8B75C8"/>
</linearGradient>
<linearGradient id="paint4_linear" x1="25.0008" y1="45.7851" x2="25.0008" y2="48.9446" gradientUnits="userSpaceOnUse">
<stop offset="0.0001" stop-color="#8B75C8"/>
<stop offset="1" stop-color="#8B75C8"/>
</linearGradient>
<linearGradient id="paint5_linear" x1="39.3343" y1="40.4981" x2="44.5855" y2="45.7483" gradientUnits="userSpaceOnUse">
<stop stop-color="#97AAAA"/>
<stop offset="1" stop-color="#E8EFEE"/>
</linearGradient>
<linearGradient id="paint6_linear" x1="25.0001" y1="15.8353" x2="25.0001" y2="36.0526" gradientUnits="userSpaceOnUse">
<stop stop-color="white"/>
<stop offset="1" stop-color="#E8EFEE"/>
</linearGradient>
<linearGradient id="paint7_linear" x1="25.0001" y1="42.3007" x2="25.0001" y2="45.0164" gradientUnits="userSpaceOnUse">
<stop stop-color="#C2CECE" stop-opacity="0"/>
<stop offset="0.179" stop-color="#AFBCBC" stop-opacity="0.179"/>
<stop offset="1" stop-color="#5B6A6A"/>
</linearGradient>
<linearGradient id="paint8_linear" x1="25.0012" y1="9.47673" x2="25.0012" y2="10.5757" gradientUnits="userSpaceOnUse">
<stop stop-color="#C2CECE"/>
<stop offset="1" stop-color="#97AAAA"/>
</linearGradient>
<linearGradient id="paint9_linear" x1="25.0001" y1="20.6417" x2="25.0001" y2="49.0165" gradientUnits="userSpaceOnUse">
<stop stop-color="#C2CECE" stop-opacity="0"/>
<stop offset="0.179" stop-color="#AFBCBC" stop-opacity="0.179"/>
<stop offset="1" stop-color="#5B6A6A"/>
</linearGradient>
<linearGradient id="paint10_linear" x1="34.8814" y1="17.4343" x2="9.2931" y2="-8.15509" gradientUnits="userSpaceOnUse">
<stop stop-color="#C2CECE" stop-opacity="0"/>
<stop offset="0.179" stop-color="#AFBCBC" stop-opacity="0.179"/>
<stop offset="1" stop-color="#5B6A6A"/>
</linearGradient>
<linearGradient id="paint11_linear" x1="25.0012" y1="5.20597" x2="25.0012" y2="14.2456" gradientUnits="userSpaceOnUse">
<stop stop-color="#C2CECE"/>
<stop offset="1" stop-color="#97AAAA"/>
</linearGradient>
<linearGradient id="paint12_linear" x1="26.9905" y1="5.57513" x2="-0.193713" y2="7.08142" gradientUnits="userSpaceOnUse">
<stop stop-color="#C2CECE" stop-opacity="0"/>
<stop offset="1" stop-color="#97AAAA"/>
</linearGradient>
<linearGradient id="paint13_linear" x1="27.184" y1="5.60787" x2="22.963" y2="2.71955" gradientUnits="userSpaceOnUse">
<stop stop-color="#C2CECE" stop-opacity="0"/>
<stop offset="1" stop-color="#97AAAA"/>
</linearGradient>
<linearGradient id="paint14_linear" x1="35.6742" y1="36.2749" x2="39.7348" y2="40.3354" gradientUnits="userSpaceOnUse">
<stop stop-color="white"/>
<stop offset="1" stop-color="#E8EFEE"/>
</linearGradient>
<clipPath id="clip0">
<rect width="50" height="50" fill="white"/>
</clipPath>
</defs>
</svg>
