<svg width="18" height="22" viewBox="0 0 18 22" fill="none" xmlns="http://www.w3.org/2000/svg">
<path d="M6.17268 22C3.09373 21.9811 0.546875 15.2972 0.546875 11.8933C0.546875 6.33297 4.46926 5.11566 5.98092 5.11566C6.66216 5.11566 7.38958 5.40016 8.03118 5.65191C8.47985 5.82752 8.94387 6.00881 9.20194 6.00881C9.35641 6.00881 9.72042 5.85459 10.0418 5.71929C10.7272 5.42912 11.5801 5.06848 12.5733 5.06848C12.575 5.06848 12.5774 5.06848 12.5792 5.06848C13.3208 5.06848 15.5693 5.24156 16.9212 7.40048L17.2379 7.90652L16.7821 8.27223C16.1311 8.79465 14.9431 9.74761 14.9431 11.6353C14.9431 13.871 16.2885 14.7308 16.9348 15.1443C17.2201 15.3268 17.5154 15.515 17.5154 15.9267C17.5154 16.1955 15.4983 21.9666 12.5691 21.9666C11.8523 21.9666 11.3457 21.7375 10.8988 21.5355C10.4466 21.3309 10.0566 21.1547 9.41201 21.1547C9.08529 21.1547 8.67214 21.319 8.23475 21.4933C7.63702 21.7306 6.96047 22 6.1928 22H6.17268Z" fill="#8D77C8"/>
<path d="M12.8837 0C12.9599 2.92514 10.9928 4.95447 9.02793 4.8272C8.70415 2.49283 10.9925 0 12.8837 0Z" fill="#8D77C8"/>
</svg>
