<svg width="59" height="59" viewBox="0 0 59 59" fill="none" xmlns="http://www.w3.org/2000/svg">
<g clip-path="url(#clip0)">
<path d="M52.2561 4.95438H6.74337C5.46519 4.95438 4.42773 5.99184 4.42773 7.27002V55.049C4.42773 56.3271 5.46519 57.3646 6.74337 57.3646H52.2561C53.5343 57.3646 54.5717 56.3271 54.5717 55.049V7.27002C54.5717 5.99184 53.5345 4.95438 52.2561 4.95438Z" fill="url(#paint0_linear)"/>
<path d="M52.2562 57.3646H6.74435C5.46547 57.3646 4.42871 56.328 4.42871 55.049V29.9631H54.5718V55.049C54.5718 56.328 53.535 57.3646 52.2562 57.3646Z" fill="url(#paint1_linear)"/>
<path d="M52.2562 57.3646H6.74435C5.46547 57.3646 4.42871 56.3279 4.42871 55.049V50.1862H54.5718V55.049C54.5718 56.3279 53.535 57.3646 52.2562 57.3646Z" fill="url(#paint2_linear)"/>
<path d="M56.6831 51.73H2.31657C0.829128 51.73 -0.272513 50.3476 0.0593625 48.8977L4.42836 29.8088H54.5714L58.9404 48.8977C59.2723 50.3476 58.1706 51.73 56.6831 51.73Z" fill="url(#paint3_linear)"/>
<path d="M56.6831 51.73H2.31657C0.829128 51.73 -0.272513 50.3476 0.0593625 48.8977L4.42836 29.8088H54.5714L58.9404 48.8977C59.2723 50.3476 58.1706 51.73 56.6831 51.73Z" fill="url(#paint4_linear)"/>
<path d="M56.6835 51.73C58.1709 51.73 59.2725 50.3476 58.9407 48.8977L54.5717 29.8088H4.42871L26.3499 51.73H56.6835Z" fill="url(#paint5_linear)"/>
<path d="M54.5718 51.73H4.42871V51.8072L9.98612 57.3646H52.2562C53.535 57.3646 54.5718 56.3279 54.5718 55.049V51.73Z" fill="url(#paint6_linear)"/>
<path d="M29.046 29.8087V34.4014C29.046 35.8571 28.7002 36.9424 28.0056 37.6587C27.3125 38.3751 26.3275 38.7332 25.0524 38.7332C22.411 38.7332 21.0896 37.2881 21.0896 34.4015V29.8088H17.5312V34.4015C17.5312 36.9765 18.2136 38.8675 19.5798 40.0747C20.9444 41.2835 22.7692 41.8886 25.0524 41.8886C27.3341 41.8886 29.165 41.2835 30.5404 40.0747C31.9174 38.8675 32.6059 36.9764 32.6059 34.4015V29.8088L29.046 29.8087Z" fill="url(#paint7_linear)"/>
<path d="M37.9102 29.8087V40.5116C37.9102 40.8697 38.0831 41.1553 38.4303 41.3683C38.7761 41.5814 39.1959 41.6863 39.6885 41.6863C40.1593 41.6863 40.5731 41.5813 40.9311 41.3683C41.2893 41.1553 41.4684 40.8697 41.4684 40.5116V29.8087H37.9102Z" fill="url(#paint8_linear)"/>
<path d="M58.9408 48.8972L54.572 29.8087V7.27002C54.572 5.99184 53.5345 4.95438 52.2563 4.95438H51.1611C52.4393 4.95438 53.4768 5.99184 53.4768 7.27002V29.8087L57.8457 48.8972C58.1775 50.3483 57.0753 51.7299 55.5887 51.7299H56.6839C58.1705 51.73 59.2727 50.3482 58.9408 48.8972Z" fill="url(#paint9_linear)"/>
<path d="M19.689 9.07931C19.2675 8.68418 19.002 8.12529 19.002 7.50152V4.95438H23.3244L26.8545 8.48447C27.9796 9.60962 28.6118 11.1358 28.6118 12.7271C28.6118 13.8928 27.7149 14.8953 26.5504 14.948C25.8866 14.9779 25.289 14.707 24.8729 14.2634L19.689 9.07931Z" fill="url(#paint10_linear)"/>
<path d="M21.1632 9.66286C19.9696 9.66286 19.002 8.69524 19.002 7.50164V3.79663C19.002 2.60303 19.9696 1.63541 21.1632 1.63541C22.3568 1.63541 23.3244 2.60303 23.3244 3.79663V7.50153C23.3244 8.69524 22.3568 9.66286 21.1632 9.66286Z" fill="url(#paint11_linear)"/>
<path d="M21.1641 1.63541V9.66286C22.3577 9.66286 23.3253 8.69524 23.3253 7.50164V3.79663C23.3253 2.60303 22.3577 1.63541 21.1641 1.63541Z" fill="url(#paint12_linear)"/>
<path d="M35.397 9.07931C34.9755 8.68418 34.71 8.12529 34.71 7.50152V4.95438H39.0324L42.5625 8.48447C43.6876 9.60962 44.3198 11.1358 44.3198 12.7271C44.3198 13.8928 43.4229 14.8953 42.2584 14.948C41.5946 14.9779 40.997 14.707 40.5809 14.2634L35.397 9.07931Z" fill="url(#paint13_linear)"/>
<path d="M36.8712 9.66286C35.6776 9.66286 34.71 8.69524 34.71 7.50164V3.79663C34.71 2.60303 35.6776 1.63541 36.8712 1.63541C38.0648 1.63541 39.0324 2.60303 39.0324 3.79663V7.50153C39.0324 8.69524 38.0647 9.66286 36.8712 9.66286Z" fill="url(#paint14_linear)"/>
<path d="M36.8711 1.63541V9.66286C38.0647 9.66286 39.0323 8.69524 39.0323 7.50164V3.79663C39.0323 2.60303 38.0646 1.63541 36.8711 1.63541Z" fill="url(#paint15_linear)"/>
<path d="M25.7969 38H21.8359V25.3906L17.9453 26.5273V23.5273L25.4336 20.9375H25.7969V38ZM41.3711 31.332H43.1055V34.3789H41.3711V38H37.4219V34.3789H30.8242L30.5898 31.9648L37.4219 20.9727V20.9375H41.3711V31.332ZM34.3516 31.332H37.4219V26.082L37.1758 26.4805L34.3516 31.332Z" fill="white"/>
</g>
<defs>
<linearGradient id="paint0_linear" x1="20.7752" y1="11.7686" x2="34.1354" y2="41.4576" gradientUnits="userSpaceOnUse">
<stop stop-color="#8B75C8"/>
<stop offset="1" stop-color="#7D66BB"/>
</linearGradient>
<linearGradient id="paint1_linear" x1="12.365" y1="24.4357" x2="46.7938" y2="61.6511" gradientUnits="userSpaceOnUse">
<stop stop-color="#C2CECE"/>
<stop offset="1" stop-color="#97AAAA"/>
</linearGradient>
<linearGradient id="paint2_linear" x1="29.5011" y1="56.711" x2="29.5011" y2="51.5754" gradientUnits="userSpaceOnUse">
<stop stop-color="#C2CECE" stop-opacity="0"/>
<stop offset="0.179" stop-color="#AFBCBC" stop-opacity="0.179"/>
<stop offset="1" stop-color="#5B6A6A"/>
</linearGradient>
<linearGradient id="paint3_linear" x1="7.96377" y1="31.6567" x2="63.2043" y2="56.537" gradientUnits="userSpaceOnUse">
<stop stop-color="#00A6F9"/>
<stop offset="1" stop-color="#0071E2"/>
</linearGradient>
<linearGradient id="paint4_linear" x1="29.5008" y1="49.6198" x2="29.5008" y2="52.7075" gradientUnits="userSpaceOnUse">
<stop offset="0.0001" stop-color="#8B75C8"/>
<stop offset="1" stop-color="#8B75C8"/>
</linearGradient>
<linearGradient id="paint5_linear" x1="39.9739" y1="40.2804" x2="4.97709" y2="5.28374" gradientUnits="userSpaceOnUse">
<stop stop-color="#8B75C8"/>
<stop offset="0.0001" stop-color="#8B75C8"/>
<stop offset="1" stop-color="#8B75C8"/>
</linearGradient>
<linearGradient id="paint6_linear" x1="25.8196" y1="47.2107" x2="20.0854" y2="40.112" gradientUnits="userSpaceOnUse">
<stop stop-color="#C2CECE" stop-opacity="0"/>
<stop offset="0.179" stop-color="#AFBCBC" stop-opacity="0.179"/>
<stop offset="1" stop-color="#5B6A6A"/>
</linearGradient>
<linearGradient id="paint7_linear" x1="25.0692" y1="33.7483" x2="25.0692" y2="16.1301" gradientUnits="userSpaceOnUse">
<stop stop-color="#C2CECE" stop-opacity="0"/>
<stop offset="0.179" stop-color="#AFBCBC" stop-opacity="0.179"/>
<stop offset="1" stop-color="#5B6A6A"/>
</linearGradient>
<linearGradient id="paint8_linear" x1="39.6906" y1="33.7483" x2="39.6906" y2="16.1301" gradientUnits="userSpaceOnUse">
<stop stop-color="#C2CECE" stop-opacity="0"/>
<stop offset="0.179" stop-color="#AFBCBC" stop-opacity="0.179"/>
<stop offset="1" stop-color="#5B6A6A"/>
</linearGradient>
<linearGradient id="paint9_linear" x1="54.6265" y1="28.1969" x2="42.8138" y2="31.2847" gradientUnits="userSpaceOnUse">
<stop offset="0.0001" stop-color="#008BF2" stop-opacity="0"/>
<stop offset="1" stop-color="#0046E2"/>
</linearGradient>
<linearGradient id="paint10_linear" x1="25.5769" y1="11.0853" x2="21.0006" y2="6.50912" gradientUnits="userSpaceOnUse">
<stop offset="0.0001" stop-color="#008BF2" stop-opacity="0"/>
<stop offset="1" stop-color="#0046E2"/>
</linearGradient>
<linearGradient id="paint11_linear" x1="21.1638" y1="1.74443" x2="21.1638" y2="26.5205" gradientUnits="userSpaceOnUse">
<stop stop-color="#FFC200"/>
<stop offset="0.268" stop-color="#FFBB00"/>
<stop offset="0.659" stop-color="#FFA801"/>
<stop offset="1" stop-color="#FF9102"/>
</linearGradient>
<linearGradient id="paint12_linear" x1="21.5114" y1="5.64728" x2="23.4609" y2="5.64728" gradientUnits="userSpaceOnUse">
<stop stop-color="#FFC200" stop-opacity="0"/>
<stop offset="0.203" stop-color="#FFBB00" stop-opacity="0.203"/>
<stop offset="0.499" stop-color="#FFA700" stop-opacity="0.499"/>
<stop offset="0.852" stop-color="#FF8800" stop-opacity="0.852"/>
<stop offset="1" stop-color="#FF7800"/>
</linearGradient>
<linearGradient id="paint13_linear" x1="41.2855" y1="11.0853" x2="36.7091" y2="6.50912" gradientUnits="userSpaceOnUse">
<stop offset="0.0001" stop-color="#008BF2" stop-opacity="0"/>
<stop offset="1" stop-color="#0046E2"/>
</linearGradient>
<linearGradient id="paint14_linear" x1="36.8723" y1="1.74443" x2="36.8723" y2="26.5205" gradientUnits="userSpaceOnUse">
<stop stop-color="#FFC200"/>
<stop offset="0.268" stop-color="#FFBB00"/>
<stop offset="0.659" stop-color="#FFA801"/>
<stop offset="1" stop-color="#FF9102"/>
</linearGradient>
<linearGradient id="paint15_linear" x1="37.2201" y1="5.64728" x2="39.1684" y2="5.64728" gradientUnits="userSpaceOnUse">
<stop stop-color="#FFC200" stop-opacity="0"/>
<stop offset="0.203" stop-color="#FFBB00" stop-opacity="0.203"/>
<stop offset="0.499" stop-color="#FFA700" stop-opacity="0.499"/>
<stop offset="0.852" stop-color="#FF8800" stop-opacity="0.852"/>
<stop offset="1" stop-color="#FF7800"/>
</linearGradient>
<clipPath id="clip0">
<rect width="59" height="59" fill="white"/>
</clipPath>
</defs>
</svg>
