<svg width="17" height="17" viewBox="0 0 17 17" fill="none" xmlns="http://www.w3.org/2000/svg">
<path d="M8.5 0C3.81323 0 0 3.8129 0 8.5C0 13.1871 3.81323 17 8.5 17C13.1868 17 17 13.1871 17 8.5C17 3.8129 13.1868 0 8.5 0ZM8.5 16.3462C4.17383 16.3462 0.653846 12.8262 0.653846 8.5C0.653846 4.17383 4.17383 0.653846 8.5 0.653846C12.8262 0.653846 16.3462 4.17383 16.3462 8.5C16.3462 12.8262 12.8262 16.3462 8.5 16.3462Z" fill="white"/>
<path d="M12.5865 8.17308H8.82693V4.57692C8.82693 4.39613 8.68046 4.25 8.5 4.25C8.31954 4.25 8.17308 4.39613 8.17308 4.57692V8.17308H4.41346C4.233 8.17308 4.08654 8.31921 4.08654 8.5C4.08654 8.68079 4.233 8.82692 4.41346 8.82692H8.17308V12.75C8.17308 12.9308 8.31954 13.0769 8.5 13.0769C8.68046 13.0769 8.82693 12.9308 8.82693 12.75V8.82692H12.5865C12.767 8.82692 12.9135 8.68079 12.9135 8.5C12.9135 8.31921 12.767 8.17308 12.5865 8.17308Z" fill="white"/>
</svg>
