<svg width="14" height="15" viewBox="0 0 14 15" fill="none" xmlns="http://www.w3.org/2000/svg">
<g clip-path="url(#clip0)">
<path d="M13.7011 5.85812C13.6112 5.57618 13.3644 5.37593 13.0726 5.34926L9.10773 4.98436L7.53993 1.26484C7.42433 0.992248 7.16105 0.815796 6.86854 0.815796C6.57603 0.815796 6.31275 0.992248 6.19715 1.26548L4.62935 4.98436L0.663892 5.34926C0.37253 5.37657 0.126444 5.57618 0.0359965 5.85812C-0.0544515 6.14006 0.0290792 6.4493 0.249487 6.64424L3.24643 9.30833L2.3627 13.2541C2.29803 13.5442 2.40913 13.8441 2.64662 14.0181C2.77427 14.1116 2.92362 14.1592 3.07423 14.1592C3.20409 14.1592 3.33289 14.1237 3.4485 14.0536L6.86854 11.9818L10.2873 14.0536C10.5375 14.2062 10.8529 14.1923 11.0898 14.0181C11.3274 13.8436 11.4384 13.5436 11.3738 13.2541L10.49 9.30833L13.487 6.64477C13.7074 6.4493 13.7915 6.14059 13.7011 5.85812Z" fill="#FFC107"/>
</g>
<defs>
<clipPath id="clip0">
<rect width="13.7368" height="13.9237" fill="white" transform="translate(0 0.516968)"/>
</clipPath>
</defs>
</svg>
