<svg width="26" height="26" viewBox="0 0 26 26" fill="none" xmlns="http://www.w3.org/2000/svg">
<path opacity="0.2" fill-rule="evenodd" clip-rule="evenodd" d="M13 26C20.1797 26 26 20.1797 26 13C26 5.8203 20.1797 0 13 0C5.8203 0 0 5.8203 0 13C0 20.1797 5.8203 26 13 26ZM13.3073 5.01203C17.0835 5.02863 18.7772 6.26695 19.1957 6.65538C20.5862 7.87378 21.3573 10.5695 20.8366 14.8389C20.3807 18.6042 17.7762 19.2723 16.8998 19.4971C16.8134 19.5192 16.7438 19.5371 16.6947 19.5532C16.4574 19.6295 14.3782 20.1541 11.6696 19.925C11.3698 20.2736 10.9744 20.7317 10.6877 21.0438C10.6009 21.1379 10.5196 21.2309 10.4419 21.3197C10.0506 21.7672 9.75021 22.1108 9.29387 21.9667C8.83914 21.8273 8.8655 21.1334 8.8655 21.1334L8.8688 19.4204H8.8655C4.90808 18.2982 4.9641 14.1617 5.01023 11.9539C5.05636 9.7462 5.48143 7.96341 6.68744 6.74833C8.85562 4.74312 13.3073 5.01203 13.3073 5.01203ZM16.4541 18.2983C17.1994 18.123 19.2709 17.636 19.6537 14.5268C20.0919 10.9646 19.4922 8.53444 18.3159 7.51855C17.96 7.1932 16.4311 6.22379 13.2381 6.21051C13.2381 6.21051 9.45862 5.96152 7.62325 7.63806C6.60176 8.65395 6.25578 10.1645 6.21953 12.007C6.21829 12.0704 6.21685 12.1358 6.21537 12.203C6.17389 14.0889 6.10096 17.4042 9.34 18.3082C9.34 18.3082 9.32682 20.9243 9.32682 21.1534C9.32352 21.5019 9.51464 21.5185 9.68928 21.3426C10.2231 20.8014 11.9365 18.7199 11.9365 18.7199C14.2332 18.8693 16.062 18.4111 16.2597 18.348C16.3056 18.3332 16.3718 18.3176 16.4541 18.2983ZM14.6484 11.8643C14.6616 12.1498 15.0867 12.1299 15.0735 11.8444C15.0274 10.8916 14.5166 10.3604 13.5973 10.3106C13.3172 10.294 13.2908 10.7222 13.5742 10.7388C14.2728 10.7787 14.6122 11.1339 14.6484 11.8643ZM13.2447 9.58684C14.9021 9.70968 15.7753 10.8119 15.7424 12.2195C15.7358 12.5017 16.1642 12.515 16.1675 12.2295C16.2037 10.6227 15.1855 9.29801 13.2744 9.15858C12.9943 9.13866 12.9646 9.56692 13.2447 9.58684ZM16.866 12.6677C16.866 12.9532 17.2944 12.9499 17.2911 12.6644C17.268 9.74952 15.314 8.05969 12.8855 8.04309C12.6055 8.04309 12.6055 8.46804 12.8855 8.47136C15.057 8.48796 16.8463 9.96199 16.866 12.6677ZM16.9187 15.9278V15.9212C17.0769 15.6158 17.0242 15.3269 16.7935 15.1377C16.3849 14.7493 15.7688 14.321 15.2844 14.0455C14.9252 13.8429 14.5595 13.9691 14.4079 14.1683L14.0915 14.5667C13.9301 14.7692 13.6302 14.7426 13.6302 14.7426C11.439 14.1783 10.8525 11.944 10.8525 11.944C10.8525 11.944 10.8261 11.6419 11.0271 11.4792L11.4225 11.1605C11.6202 11.0078 11.7454 10.6393 11.5444 10.2774C11.4291 10.0749 11.2083 9.713 11.0436 9.48725C10.8689 9.24489 10.4603 8.75355 10.4603 8.75355C10.2659 8.51784 9.97596 8.46472 9.6728 8.62407H9.66621C9.03685 8.98262 8.34817 9.65324 8.56894 10.3438C8.56894 10.3438 8.72381 10.9148 9.42567 12.193C9.75848 12.8038 10.1012 13.3118 10.4406 13.74C10.8162 14.2214 11.3039 14.7227 11.8377 15.1477C12.8724 15.9776 14.51 16.8275 15.2053 17.0234L15.2119 17.0334C15.8973 17.2558 16.5629 16.5586 16.9187 15.9278Z" fill="white"/>
</svg>
