<svg width="102" height="102" viewBox="0 0 102 102" fill="none" xmlns="http://www.w3.org/2000/svg">
<g clip-path="url(#clip0_134_201)">
<path d="M102 51C102 67.8381 88.3999 81.6 71.3999 81.6C54.5618 81.6 40.7999 67.8381 40.7999 51C40.7999 34.1619 54.3999 20.4 71.238 20.4C88.3999 20.4 102 34.1619 102 51Z" fill="#FFB600"/>
<path d="M71.3999 20.4C88.238 20.4 102 34.1619 102 51C102 67.8381 88.3999 81.6 71.3999 81.6C54.5618 81.6 40.7999 67.8381 40.7999 51" fill="#F7981D"/>
<path d="M71.4001 20.4C88.2382 20.4 102 34.1619 102 51C102 67.8381 88.4001 81.6 71.4001 81.6" fill="#FF8500"/>
<path d="M30.2762 20.4C13.6 20.5619 0 34.1619 0 51C0 67.8381 13.6 81.6 30.6 81.6C38.5333 81.6 45.6571 78.5238 51.1619 73.6667C52.2952 72.6953 53.2667 71.5619 54.2381 70.4286H47.9238C47.1143 69.4572 46.3048 68.3238 45.6571 67.3524H56.5048C57.1524 66.381 57.8 65.2476 58.2857 64.1143H43.8762C43.3905 63.1429 42.9048 62.0095 42.5809 60.8762H59.419C60.3905 57.8 61.0381 54.5619 61.0381 51.1619C61.0381 48.8953 60.7143 46.7905 60.3905 44.6857H41.6095C41.7714 43.5524 42.0952 42.581 42.419 41.4476H59.2571C58.9333 40.3143 58.4476 39.181 57.9619 38.2095H43.7143C44.2 37.0762 44.8476 36.1048 45.4952 34.9715H56.3429C55.6952 33.8381 54.8857 32.7048 53.9143 31.7334H47.9238C48.8952 30.6 49.8667 29.6286 51 28.6572C45.6571 23.6381 38.3714 20.7238 30.4381 20.7238C30.4381 20.4 30.4381 20.4 30.2762 20.4Z" fill="#FF5050"/>
<path d="M0 50.9999C0 67.838 13.6 81.5999 30.6 81.5999C38.5333 81.5999 45.6571 78.5238 51.1619 73.6666C52.2952 72.6952 53.2667 71.5618 54.2381 70.4285H47.9238C47.1143 69.4571 46.3048 68.3237 45.6571 67.3523H56.5048C57.1524 66.3809 57.8 65.2476 58.2857 64.1142H43.8762C43.3905 63.1428 42.9048 62.0095 42.5809 60.8761H59.419C60.3905 57.7999 61.0381 54.5618 61.0381 51.1618C61.0381 48.8952 60.7143 46.7904 60.3905 44.6857H41.6095C41.7714 43.5523 42.0952 42.5809 42.419 41.4476H59.2571C58.9333 40.3142 58.4476 39.1809 57.9619 38.2095H43.7143C44.2 37.0761 44.8476 36.1047 45.4952 34.9714H56.3429C55.6952 33.838 54.8857 32.7047 53.9143 31.7333H47.9238C48.8952 30.5999 49.8667 29.6285 51 28.6571C45.6571 23.638 38.3714 20.7238 30.4381 20.7238H30.2762" fill="#E52836"/>
<path d="M30.5999 81.5999C38.5333 81.5999 45.6571 78.5238 51.1618 73.6666C52.2952 72.6952 53.2666 71.5618 54.238 70.4285H47.9237C47.1142 69.4571 46.3047 68.3237 45.6571 67.3523H56.5047C57.1523 66.3809 57.7999 65.2476 58.2856 64.1142H43.8761C43.3904 63.1428 42.9047 62.0095 42.5809 60.8761H59.419C60.3904 57.7999 61.038 54.5618 61.038 51.1618C61.038 48.8952 60.7142 46.7904 60.3904 44.6857H41.6095C41.7714 43.5523 42.0952 42.5809 42.419 41.4476H59.2571C58.9333 40.3142 58.4475 39.1809 57.9618 38.2095H43.7142C44.1999 37.0761 44.8476 36.1047 45.4952 34.9714H56.3428C55.6952 33.838 54.8856 32.7047 53.9142 31.7333H47.9237C48.8952 30.5999 49.8666 29.6285 50.9999 28.6571C45.6571 23.638 38.3714 20.7238 30.438 20.7238H30.2761" fill="#CB2026"/>
<path d="M41.4474 58.7714L41.9332 56.019C41.7712 56.019 41.4474 56.1809 41.1236 56.1809C39.9903 56.1809 39.8284 55.5333 39.9903 55.2095L40.9617 49.5429H42.7427L43.2284 46.4667H41.6093L41.9332 44.5238H38.6951C38.6951 44.5238 36.7522 55.2095 36.7522 56.5048C36.7522 58.4476 37.8855 59.2571 39.3427 59.2571C40.3141 59.2571 41.1236 58.9333 41.4474 58.7714Z" fill="white"/>
<path d="M42.5809 53.5905C42.5809 58.1238 45.6571 59.2572 48.2476 59.2572C50.6762 59.2572 51.6476 58.7715 51.6476 58.7715L52.2952 55.6953C52.2952 55.6953 50.5143 56.5048 48.8952 56.5048C45.3333 56.5048 45.9809 53.9143 45.9809 53.9143H52.619C52.619 53.9143 53.1047 51.8096 53.1047 51C53.1047 48.8953 51.9714 46.3048 48.4095 46.3048C45.0095 45.981 42.5809 49.5429 42.5809 53.5905ZM48.2476 48.8953C50.0285 48.8953 49.7047 51 49.7047 51.1619H46.1428C46.1428 51 46.4666 48.8953 48.2476 48.8953Z" fill="white"/>
<path d="M68.8094 58.7714L69.457 55.2095C69.457 55.2095 67.838 56.019 66.7047 56.019C64.438 56.019 63.4666 54.2381 63.4666 52.2952C63.4666 48.4095 65.4094 46.3047 67.6761 46.3047C69.2951 46.3047 70.5904 47.2762 70.5904 47.2762L71.0761 43.8762C71.0761 43.8762 69.1332 43.0667 67.3523 43.0667C63.6285 43.0667 59.9047 46.3047 59.9047 52.4571C59.9047 56.5047 61.8475 59.2571 65.7332 59.2571C67.0285 59.2571 68.8094 58.7714 68.8094 58.7714Z" fill="white"/>
<path d="M23.6381 45.981C21.3714 45.981 19.7524 46.6286 19.7524 46.6286L19.2667 49.381C19.2667 49.381 20.7238 48.7333 22.8286 48.7333C23.9619 48.7333 24.9333 48.8952 24.9333 49.8667C24.9333 50.5143 24.7714 50.6762 24.7714 50.6762C24.7714 50.6762 23.8 50.6762 23.3143 50.6762C20.5619 50.6762 17.4857 51.8095 17.4857 55.5333C17.4857 58.4476 19.4286 59.0952 20.5619 59.0952C22.8286 59.0952 23.8 57.6381 23.9619 57.6381L23.8 58.9333H26.7143L28.0095 50.0286C28.0095 46.1429 24.7714 45.981 23.6381 45.981ZM24.2857 53.2667C24.2857 53.7524 23.9619 56.3429 22.019 56.3429C21.0476 56.3429 20.7238 55.5333 20.7238 55.0476C20.7238 54.2381 21.2095 53.1048 23.6381 53.1048C24.1238 53.2667 24.2857 53.2667 24.2857 53.2667Z" fill="white"/>
<path d="M31.0859 59.0953C31.8954 59.0953 35.943 59.2572 35.943 54.8858C35.943 50.8381 32.0573 51.6477 32.0573 50.0286C32.0573 49.2191 32.7049 48.8953 33.8383 48.8953C34.324 48.8953 36.1049 49.0572 36.1049 49.0572L36.5906 46.1429C36.5906 46.1429 35.4573 45.8191 33.5144 45.8191C31.0859 45.8191 28.6573 46.7905 28.6573 50.0286C28.6573 53.7524 32.7049 53.4286 32.7049 54.8858C32.7049 55.8572 31.5716 56.0191 30.7621 56.0191C29.3049 56.0191 27.8478 55.5334 27.8478 55.5334L27.3621 58.4477C27.524 58.7715 28.3335 59.0953 31.0859 59.0953Z" fill="white"/>
<path d="M95.686 43.3905L95.0383 47.7619C95.0383 47.7619 93.7431 46.1429 91.9622 46.1429C89.0479 46.1429 86.4574 49.7048 86.4574 53.9143C86.4574 56.5048 87.7526 59.2572 90.505 59.2572C92.4479 59.2572 93.5812 57.9619 93.5812 57.9619L93.4193 59.0953H96.6574L99.086 43.5524L95.686 43.3905ZM94.2288 51.9715C94.2288 53.7524 93.4193 56.0191 91.6383 56.0191C90.505 56.0191 89.8574 55.0476 89.8574 53.4286C89.8574 50.8381 90.9907 49.2191 92.4479 49.2191C93.5812 49.2191 94.2288 50.0286 94.2288 51.9715Z" fill="white"/>
<path d="M5.9905 58.9334L7.93335 47.2762L8.25716 58.9334H10.5238L14.7334 47.2762L12.9524 58.9334H16.3524L18.9429 43.3905H13.6L10.3619 52.9429L10.2 43.3905H5.50478L2.91431 58.9334H5.9905Z" fill="white"/>
<path d="M56.1809 58.9332C57.1524 53.5904 57.3143 49.219 59.5809 50.0285C59.9047 47.9237 60.3904 47.1142 60.7143 46.3047C60.7143 46.3047 60.5523 46.3047 60.0666 46.3047C58.6095 46.3047 57.4762 48.2475 57.4762 48.2475L57.8 46.4666H54.7238L52.619 59.0951H56.1809V58.9332Z" fill="white"/>
<path d="M76.2571 45.981C73.9904 45.981 72.3714 46.6286 72.3714 46.6286L71.8857 49.381C71.8857 49.381 73.3428 48.7333 75.4476 48.7333C76.5809 48.7333 77.5524 48.8952 77.5524 49.8667C77.5524 50.5143 77.3904 50.6762 77.3904 50.6762C77.3904 50.6762 76.419 50.6762 75.9333 50.6762C73.1809 50.6762 70.1047 51.8095 70.1047 55.5333C70.1047 58.4476 72.0476 59.0952 73.1809 59.0952C75.4476 59.0952 76.419 57.6381 76.5809 57.6381L76.419 58.9333H79.3333L80.6285 50.0286C80.7904 46.1429 77.3904 45.981 76.2571 45.981ZM77.0666 53.2667C77.0666 53.7524 76.7428 56.3429 74.8 56.3429C73.8285 56.3429 73.5047 55.5333 73.5047 55.0476C73.5047 54.2381 73.9905 53.1048 76.419 53.1048C76.9047 53.2667 76.9047 53.2667 77.0666 53.2667Z" fill="white"/>
<path d="M83.381 58.9332C84.3524 53.5904 84.5143 49.219 86.781 50.0285C87.1048 47.9237 87.5905 47.1142 87.9143 46.3047C87.9143 46.3047 87.7524 46.3047 87.2667 46.3047C85.8096 46.3047 84.6762 48.2475 84.6762 48.2475L85 46.4666H81.9239L79.8191 59.0951H83.381V58.9332Z" fill="white"/>
<path d="M36.4285 56.5048C36.4285 58.4476 37.5618 59.2571 39.0189 59.2571C40.1523 59.2571 41.1237 58.9333 41.4475 58.7714L41.9332 56.019C41.7713 56.019 41.4475 56.1809 41.1237 56.1809C39.9904 56.1809 39.8285 55.5333 39.9904 55.2095L40.9618 49.5429H42.7427L43.2285 46.4667H41.6094L41.9332 44.5238" fill="#DCE5E5"/>
<path d="M44.2001 53.5905C44.2001 58.1238 45.6572 59.2572 48.2477 59.2572C50.6763 59.2572 51.6477 58.7715 51.6477 58.7715L52.2953 55.6953C52.2953 55.6953 50.5144 56.5048 48.8953 56.5048C45.3334 56.5048 45.981 53.9143 45.981 53.9143H52.6191C52.6191 53.9143 53.1048 51.8096 53.1048 51C53.1048 48.8953 51.9715 46.3048 48.4096 46.3048C45.0096 45.981 44.2001 49.5429 44.2001 53.5905ZM48.2477 48.8953C50.0286 48.8953 50.3525 51 50.3525 51.1619H46.1429C46.1429 51 46.4667 48.8953 48.2477 48.8953Z" fill="#DCE5E5"/>
<path d="M68.8095 58.7714L69.4571 55.2095C69.4571 55.2095 67.8381 56.019 66.7048 56.019C64.4381 56.019 63.4667 54.2381 63.4667 52.2952C63.4667 48.4095 65.4095 46.3047 67.6762 46.3047C69.2952 46.3047 70.5905 47.2762 70.5905 47.2762L71.0762 43.8762C71.0762 43.8762 69.1333 43.0667 67.3524 43.0667C63.6286 43.0667 61.5238 46.3047 61.5238 52.4571C61.5238 56.5047 61.8476 59.2571 65.7333 59.2571C67.0286 59.2571 68.8095 58.7714 68.8095 58.7714Z" fill="#DCE5E5"/>
<path d="M19.2667 49.5428C19.2667 49.5428 20.7238 48.8952 22.8286 48.8952C23.9619 48.8952 24.9333 49.0571 24.9333 50.0285C24.9333 50.6761 24.7714 50.838 24.7714 50.838C24.7714 50.838 23.8 50.838 23.3143 50.838C20.5619 50.838 17.4857 51.9714 17.4857 55.6952C17.4857 58.6094 19.4286 59.2571 20.5619 59.2571C22.8286 59.2571 23.8 57.7999 23.9619 57.7999L23.8 59.0952H26.7143L28.0095 50.1904C28.0095 46.4666 24.7714 46.3047 23.4762 46.3047L19.2667 49.5428ZM25.9048 53.2666C25.9048 53.7523 23.9619 56.3428 22.019 56.3428C21.0476 56.3428 20.7238 55.5332 20.7238 55.0475C20.7238 54.238 21.2095 53.1047 23.6381 53.1047C24.1238 53.2666 25.9048 53.2666 25.9048 53.2666Z" fill="#DCE5E5"/>
<path d="M27.5238 58.7715C27.5238 58.7715 28.4952 59.0953 31.2476 59.0953C32.0571 59.0953 36.1048 59.2572 36.1048 54.8858C36.1048 50.8381 32.219 51.6477 32.219 50.0286C32.219 49.2191 32.8667 48.8953 34 48.8953C34.4857 48.8953 36.2667 49.0572 36.2667 49.0572L36.7524 46.1429C36.7524 46.1429 35.619 45.8191 33.6762 45.8191C31.2476 45.8191 30.4381 46.7905 30.4381 50.0286C30.4381 53.7524 32.8667 53.4286 32.8667 54.8858C32.8667 55.8572 31.7333 56.0191 30.9238 56.0191" fill="#DCE5E5"/>
<path d="M95.038 47.7619C95.038 47.7619 93.7427 46.1428 91.9618 46.1428C89.0475 46.1428 88.0761 49.7047 88.0761 53.9143C88.0761 56.5047 87.7523 59.2571 90.5047 59.2571C92.4475 59.2571 93.5808 57.9619 93.5808 57.9619L93.4189 59.0952H96.657L99.0856 43.5524L95.038 47.7619ZM94.8761 51.9714C94.8761 53.7524 93.4189 56.019 91.638 56.019C90.5046 56.019 89.857 55.0476 89.857 53.4286C89.857 50.8381 90.9904 49.219 92.4475 49.219C93.5808 49.219 94.8761 50.0286 94.8761 51.9714Z" fill="#DCE5E5"/>
<path d="M5.9905 58.9334L7.93335 47.2762L8.25716 58.9334H10.5238L14.7334 47.2762L12.9524 58.9334H16.3524L18.9429 43.3905H14.8953L10.3619 52.9429L10.2 43.3905H8.41907L2.91431 58.9334H5.9905Z" fill="#DCE5E5"/>
<path d="M52.781 58.9333H56.181C57.1524 53.5904 57.3143 49.219 59.581 50.0285C59.9048 47.9237 60.3905 47.1142 60.7143 46.3047C60.7143 46.3047 60.5524 46.3047 60.0667 46.3047C58.6096 46.3047 57.4762 48.2475 57.4762 48.2475L57.8001 46.4666" fill="#DCE5E5"/>
<path d="M71.8857 49.5428C71.8857 49.5428 73.3428 48.8952 75.4476 48.8952C76.5809 48.8952 77.5524 49.0571 77.5524 50.0285C77.5524 50.6761 77.3905 50.838 77.3905 50.838C77.3905 50.838 76.419 50.838 75.9333 50.838C73.1809 50.838 70.1047 51.9714 70.1047 55.6952C70.1047 58.6094 72.0476 59.2571 73.1809 59.2571C75.4476 59.2571 76.419 57.7999 76.5809 57.7999L76.419 59.0952H79.3333L80.6285 50.1904C80.6285 46.4666 77.3905 46.3047 76.0952 46.3047L71.8857 49.5428ZM78.5238 53.2666C78.5238 53.7523 76.5809 56.3428 74.6381 56.3428C73.6666 56.3428 73.3428 55.5332 73.3428 55.0475C73.3428 54.238 73.8285 53.1047 76.2571 53.1047C76.9047 53.2666 78.5238 53.2666 78.5238 53.2666Z" fill="#DCE5E5"/>
<path d="M79.9812 58.9333H83.3812C84.3526 53.5904 84.5145 49.219 86.7812 50.0285C87.105 47.9237 87.5907 47.1142 87.9145 46.3047C87.9145 46.3047 87.7526 46.3047 87.2669 46.3047C85.8098 46.3047 84.6764 48.2475 84.6764 48.2475L85.0002 46.4666" fill="#DCE5E5"/>
</g>
<defs>
<clipPath id="clip0_134_201">
<rect width="102" height="102" fill="white"/>
</clipPath>
</defs>
</svg>
