<svg width="125" height="125" viewBox="0 0 125 125" fill="none" xmlns="http://www.w3.org/2000/svg">
<g clip-path="url(#clip0_134_261)">
<path d="M45.8335 80.4563L52.1827 44.7421H62.1033L55.9525 80.4563H45.8335Z" fill="#3C58BF"/>
<path d="M45.8335 80.4563L53.9684 44.7421H62.1033L55.9525 80.4563H45.8335Z" fill="#293688"/>
<path d="M91.8651 45.1389C89.8809 44.3453 86.7063 43.5516 82.7381 43.5516C72.8175 43.5516 65.6746 48.512 65.6746 55.6548C65.6746 61.012 70.6349 63.7897 74.6032 65.5754C78.5714 67.3612 79.7619 68.5516 79.7619 70.1389C79.7619 72.5199 76.5873 73.7104 73.8095 73.7104C69.8413 73.7104 67.6587 73.1151 64.2857 71.7262L62.8968 71.131L61.5079 79.2659C63.8889 80.258 68.254 81.2501 72.8175 81.2501C83.3333 81.2501 90.2778 76.2897 90.2778 68.7501C90.2778 64.5834 87.6984 61.4088 81.746 58.8294C78.1746 57.0437 75.9921 56.0516 75.9921 54.2659C75.9921 52.6786 77.7778 51.0913 81.746 51.0913C85.119 51.0913 87.5 51.6866 89.2857 52.4802L90.2778 52.877L91.8651 45.1389Z" fill="#3C58BF"/>
<path d="M91.8651 45.1389C89.8809 44.3453 86.7063 43.5516 82.7381 43.5516C72.8175 43.5516 67.4603 48.512 67.4603 55.6548C67.4603 61.012 70.6349 63.7897 74.6032 65.5754C78.5714 67.3612 79.7619 68.5516 79.7619 70.1389C79.7619 72.5199 76.5873 73.7104 73.8095 73.7104C69.8413 73.7104 67.6587 73.1151 64.2857 71.7262L62.8968 71.131L61.5079 79.2659C63.8889 80.258 68.254 81.2501 72.8175 81.2501C83.3333 81.2501 90.2778 76.2897 90.2778 68.7501C90.2778 64.5834 87.6984 61.4088 81.746 58.8294C78.1746 57.0437 75.9921 56.0516 75.9921 54.2659C75.9921 52.6786 77.7778 51.0913 81.746 51.0913C85.119 51.0913 87.5 51.6866 89.2857 52.4802L90.2778 52.877L91.8651 45.1389Z" fill="#293688"/>
<path d="M108.929 44.7421C106.548 44.7421 104.762 44.9405 103.77 47.3214L88.8889 80.4563H99.6032L101.587 74.504H114.286L115.476 80.4563H125L116.667 44.7421H108.929ZM104.365 68.5516C104.96 66.7659 108.333 58.0357 108.333 58.0357C108.333 58.0357 109.127 55.8532 109.722 54.4643L110.317 57.8373C110.317 57.8373 112.302 66.7659 112.698 68.75H104.365V68.5516Z" fill="#3C58BF"/>
<path d="M111.31 44.7421C108.929 44.7421 107.143 44.9405 106.151 47.3214L88.8889 80.4563H99.6032L101.587 74.504H114.286L115.476 80.4563H125L116.667 44.7421H111.31ZM104.365 68.5516C105.159 66.5675 108.333 58.0357 108.333 58.0357C108.333 58.0357 109.127 55.8532 109.722 54.4643L110.317 57.8373C110.317 57.8373 112.302 66.7659 112.698 68.75H104.365V68.5516Z" fill="#293688"/>
<path d="M27.5792 69.742L26.5871 64.5833C24.8014 58.6309 19.0474 52.0833 12.6982 48.9087L21.6268 80.6547H32.3411L48.4125 44.9404H37.6982L27.5792 69.742Z" fill="#3C58BF"/>
<path d="M27.5792 69.742L26.5871 64.5833C24.8014 58.6309 19.0474 52.0833 12.6982 48.9087L21.6268 80.6547H32.3411L48.4125 44.9404H39.6824L27.5792 69.742Z" fill="#293688"/>
<path d="M0 44.7421L1.78571 45.1389C14.4841 48.1151 23.2143 55.6548 26.5873 64.5833L23.0159 47.7183C22.4206 45.3373 20.6349 44.7421 18.4524 44.7421H0Z" fill="#FFBC00"/>
<path d="M0 44.7421C12.6984 47.7183 23.2143 55.4564 26.5873 64.3849L23.2143 50.2976C22.619 47.9167 20.6349 46.5278 18.4524 46.5278L0 44.7421Z" fill="#F7981D"/>
<path d="M0 44.7421C12.6984 47.7183 23.2143 55.4564 26.5873 64.3849L24.2063 56.6468C23.6111 54.2659 22.8175 51.8849 20.0397 50.8929L0 44.7421Z" fill="#ED7C00"/>
<path d="M37.5 68.5516L30.754 61.8056L27.5794 69.3452L26.7857 64.3849C25 58.4326 19.2461 51.8849 12.8969 48.7103L21.8254 80.4564H32.5397L37.5 68.5516Z" fill="#051244"/>
<path d="M55.9525 80.4563L47.4208 71.7262L45.8335 80.4563H55.9525Z" fill="#051244"/>
<path d="M78.7698 68.1548C79.5635 68.9484 79.9603 69.5437 79.7619 70.3373C79.7619 72.7183 76.5873 73.9088 73.8095 73.9088C69.8413 73.9088 67.6587 73.3135 64.2857 71.9246L62.8968 71.3294L61.5079 79.4643C63.8889 80.4564 68.254 81.4484 72.8175 81.4484C79.1667 81.4484 84.3254 79.6627 87.3016 76.4881L78.7698 68.1548Z" fill="#051244"/>
<path d="M90.2778 80.4564H99.6032L101.587 74.504H114.286L115.476 80.4564H125L121.627 65.9723L109.722 54.4644L110.318 57.639C110.318 57.639 112.302 66.5675 112.698 68.5517H104.365C105.159 66.5675 108.333 58.0358 108.333 58.0358C108.333 58.0358 109.127 55.8532 109.722 54.4644" fill="#051244"/>
</g>
<defs>
<clipPath id="clip0_134_261">
<rect width="125" height="125" fill="white"/>
</clipPath>
</defs>
</svg>
