<svg width="54" height="49" viewBox="0 0 54 49" fill="none" xmlns="http://www.w3.org/2000/svg">
<g clip-path="url(#clip0_134_288)">
<path d="M6.40334 44.9283H47.5961C49.7915 44.9283 51.5713 43.3134 51.5713 41.3212V10.1966C51.5713 8.20447 49.7915 6.58948 47.5961 6.58948H6.40334C4.2079 6.58948 2.42812 8.20447 2.42812 10.1966V41.3212C2.42812 43.3134 4.2079 44.9283 6.40334 44.9283Z" fill="url(#paint0_linear_134_288)"/>
<path d="M7.32222 44.0734H46.6777C48.7752 44.0734 50.4757 42.5303 50.4757 40.627V10.8907C50.4757 8.98736 48.7753 7.44434 46.6777 7.44434H7.32233C5.22476 7.44434 3.52429 8.98726 3.52429 10.8907V40.6271C3.52419 42.5304 5.22466 44.0734 7.32222 44.0734Z" fill="url(#paint1_linear_134_288)"/>
<path d="M5.092 16.6572L15.0003 1.08476C15.6602 0.0474299 17.1221 -0.308012 18.2653 0.290994L49.5049 16.6572H5.092Z" fill="url(#paint2_linear_134_288)"/>
<path d="M51.5713 29.1903H2.42812V17.3794C2.42812 15.8886 3.75988 14.6802 5.40276 14.6802H48.5966C50.2395 14.6802 51.5713 15.8886 51.5713 17.3794V29.1903Z" fill="url(#paint3_linear_134_288)"/>
<path d="M51.5713 24.7484V41.3213C51.5713 43.3134 49.7915 44.9285 47.596 44.9285H6.40334C4.2079 44.9285 2.42812 43.3135 2.42812 41.3214V24.7484C2.42812 23.5179 3.52742 22.5204 4.88343 22.5204H49.116C50.472 22.5204 51.5713 23.5178 51.5713 24.7484Z" fill="url(#paint4_linear_134_288)"/>
<path d="M9.84253 16.2003V44.9286H6.40372C4.20828 44.9286 2.42849 43.3136 2.42849 41.3214V22.9279L9.84253 16.2003Z" fill="url(#paint5_linear_134_288)"/>
<path d="M13.1942 48.9729L47.6916 45.3373C49.9031 45.1042 51.5713 43.4046 51.5713 41.3844V9.92773C51.5713 10.6038 51.013 11.1724 50.2732 11.2504L12.1824 15.2648C9.97093 15.4979 8.30273 17.1975 8.30273 19.2177V45.0201C8.30273 47.3997 10.5892 49.2475 13.1942 48.9729Z" fill="url(#paint6_linear_134_288)"/>
<path d="M13.1942 42.6897L47.6916 39.0541C49.9031 38.821 51.5713 37.1214 51.5713 35.1012V41.3845C51.5713 43.4047 49.9031 45.1044 47.6916 45.3374L13.1942 48.973C10.5892 49.2476 8.30262 47.3998 8.30262 45.0201V38.7368C8.30273 41.1165 10.5892 42.9642 13.1942 42.6897Z" fill="url(#paint7_linear_134_288)"/>
<path d="M48.4787 14.8307C48.5076 14.8307 48.5369 14.8291 48.5664 14.8263L50.145 14.6687C50.581 14.6252 50.8956 14.2694 50.8476 13.8738C50.7997 13.4783 50.4072 13.1931 49.9716 13.2363L48.393 13.3938C47.957 13.4373 47.6423 13.7931 47.6903 14.1887C47.735 14.5576 48.0791 14.8307 48.4787 14.8307Z" fill="url(#paint8_linear_134_288)"/>
<path d="M16.0402 46.599C16.0736 46.599 16.1075 46.5969 16.1415 46.5931L19.2097 46.2391C19.6446 46.189 19.9526 45.8282 19.8972 45.4333C19.8419 45.0386 19.4443 44.7608 19.0092 44.8094L15.941 45.1634C15.506 45.2136 15.198 45.5744 15.2534 45.9692C15.3046 46.3331 15.6463 46.599 16.0402 46.599ZM13.0202 46.2423C13.3181 46.2423 13.6038 46.0894 13.7391 45.8285C13.9261 45.4686 13.756 45.0392 13.3592 44.8697C12.5535 44.5252 11.9476 43.9538 11.6967 43.3019C11.5521 42.9263 11.099 42.7282 10.6852 42.8592C10.2712 42.9904 10.0527 43.4013 10.1973 43.7771C10.5935 44.8066 11.476 45.6577 12.6823 46.1734C12.7917 46.2201 12.9068 46.2423 13.0202 46.2423ZM22.1765 45.8909C22.2098 45.8909 22.2438 45.8889 22.2778 45.8851L25.3459 45.5311C25.7809 45.481 26.089 45.1202 26.0335 44.7253C25.9781 44.3306 25.5806 44.0527 25.1455 44.1014L22.0773 44.4554C21.6423 44.5055 21.3342 44.8663 21.3897 45.2612C21.4409 45.625 21.7828 45.8909 22.1765 45.8909ZM28.3128 45.1828C28.3461 45.1828 28.38 45.1808 28.414 45.177L31.4822 44.823C31.9172 44.7728 32.2253 44.412 32.1698 44.0172C32.1144 43.6225 31.7168 43.3432 31.2817 43.3933L28.2135 43.7473C27.7786 43.7974 27.4705 44.1582 27.526 44.5531C27.5771 44.9169 27.9191 45.1828 28.3128 45.1828ZM34.4493 44.4747C34.4826 44.4747 34.5165 44.4727 34.5505 44.4689L37.6188 44.1148C38.0539 44.0645 38.3618 43.7038 38.3064 43.309C38.251 42.9142 37.8533 42.6363 37.4183 42.6851L34.35 43.0392C33.915 43.0894 33.607 43.4501 33.6625 43.845C33.7134 44.209 34.0553 44.4747 34.4493 44.4747ZM40.5855 43.7666C40.6189 43.7666 40.6527 43.7646 40.6868 43.7608L43.7551 43.4067C44.1902 43.3564 44.4981 42.9957 44.4426 42.6009C44.3873 42.2061 43.9895 41.9281 43.5546 41.977L40.4863 42.3311C40.0512 42.3813 39.7433 42.742 39.7987 43.1369C39.8498 43.5009 40.1916 43.7666 40.5855 43.7666ZM10.7688 41.4721C11.2074 41.4721 11.5629 41.1496 11.5629 40.7516V37.9451C11.5629 37.5471 11.2074 37.2245 10.7688 37.2245C10.3302 37.2245 9.97473 37.5471 9.97473 37.9451V40.7516C9.97462 41.1496 10.3301 41.4721 10.7688 41.4721ZM10.7688 35.8592C11.2074 35.8592 11.5629 35.5367 11.5629 35.1387V32.3322C11.5629 31.9342 11.2074 31.6117 10.7688 31.6117C10.3302 31.6117 9.97473 31.9342 9.97473 32.3322V35.1387C9.97462 35.5366 10.3301 35.8592 10.7688 35.8592ZM10.7688 30.2463C11.2074 30.2463 11.5629 29.9237 11.5629 29.5257V26.7192C11.5629 26.3212 11.2074 25.9987 10.7688 25.9987C10.3302 25.9987 9.97473 26.3212 9.97473 26.7192V29.5257C9.97462 29.9236 10.3301 30.2463 10.7688 30.2463ZM10.7688 24.6333C11.2074 24.6333 11.5629 24.3107 11.5629 23.9127V21.1062C11.5629 20.7082 11.2074 20.3857 10.7688 20.3857C10.3302 20.3857 9.97473 20.7082 9.97473 21.1062V23.9127C9.97462 24.3107 10.3301 24.6333 10.7688 24.6333ZM11.8794 19.3079C12.0755 19.3079 12.2719 19.2423 12.4254 19.1103C13.014 18.6043 13.8309 18.2818 14.7258 18.2023L14.7468 18.2003C15.1829 18.1577 15.4983 17.8024 15.4513 17.4067C15.4044 17.011 15.0129 16.7246 14.5767 16.7674L14.5632 16.7688C13.3264 16.8787 12.1766 17.3391 11.333 18.0642C11.0145 18.3379 11.001 18.794 11.3027 19.083C11.459 19.2324 11.669 19.3079 11.8794 19.3079ZM17.7353 17.8978C17.7642 17.8978 17.7935 17.8962 17.823 17.8934L20.8973 17.5866C21.3332 17.5431 21.6479 17.1873 21.5999 16.7917C21.5519 16.3962 21.1595 16.1115 20.7239 16.1542L17.6496 16.4609C17.2137 16.5044 16.899 16.8603 16.9469 17.2558C16.9916 17.6246 17.3357 17.8978 17.7353 17.8978ZM23.8838 17.2843C23.9127 17.2843 23.9421 17.2828 23.9715 17.2799L27.0459 16.9732C27.4818 16.9296 27.7965 16.5738 27.7485 16.1783C27.7006 15.7826 27.3076 15.4976 26.8725 15.5407L23.7981 15.8474C23.3622 15.891 23.0475 16.2468 23.0955 16.6423C23.1402 17.0113 23.4842 17.2843 23.8838 17.2843ZM30.0327 16.671C30.0616 16.671 30.0909 16.6694 30.1203 16.6666L33.1946 16.3598C33.6305 16.3163 33.9452 15.9605 33.8972 15.5649C33.8494 15.1694 33.4571 14.8844 33.0212 14.9273L29.9469 15.2341C29.511 15.2776 29.1963 15.6334 29.2443 16.029C29.2889 16.3978 29.6329 16.671 30.0327 16.671ZM36.1814 16.0576C36.2103 16.0576 36.2396 16.0561 36.269 16.0532L39.3433 15.7465C39.7793 15.7029 40.094 15.3471 40.046 14.9516C39.9981 14.5561 39.6063 14.2712 39.1699 14.314L36.0956 14.6207C35.6597 14.6643 35.345 15.0201 35.393 15.4156C35.4375 15.7845 35.7817 16.0576 36.1814 16.0576ZM42.3301 15.4441C42.359 15.4441 42.3883 15.4426 42.4177 15.4397L45.4921 15.133C45.928 15.0895 46.2427 14.7336 46.1947 14.3381C46.1467 13.9427 45.7548 13.6578 45.3187 13.7005L42.2444 14.0073C41.8084 14.0508 41.4937 14.4066 41.5417 14.8022C41.5863 15.171 41.9305 15.4441 42.3301 15.4441Z" fill="url(#paint9_linear_134_288)"/>
<path d="M46.7293 43.0575C46.7626 43.0575 46.7964 43.0556 46.8304 43.0517L48.406 42.87C48.8411 42.8198 49.1492 42.459 49.0937 42.0642C49.0384 41.6695 48.6408 41.3902 48.2058 41.4403L46.6302 41.622C46.1951 41.6721 45.887 42.0329 45.9425 42.4277C45.9936 42.7917 46.3355 43.0575 46.7293 43.0575Z" fill="url(#paint10_linear_134_288)"/>
<path d="M17.5531 5.36582L22.6355 7.87535C23.2975 8.20218 24.1262 7.98024 24.4864 7.37951C24.8466 6.77878 24.602 6.02684 23.94 5.69992L18.8576 3.19049C18.1955 2.86366 17.3669 3.0856 17.0066 3.68633C16.6464 4.28696 16.891 5.039 17.5531 5.36582Z" fill="#61DB99"/>
<path d="M8.3031 34.8188L13.3467 30.2422C14.0583 29.539 15.0795 29.098 16.2144 29.098C18.3645 29.098 20.1075 30.6797 20.1075 32.6306C20.1075 33.6605 19.6215 34.5872 18.8466 35.2328L8.30299 44.8001V34.8188H8.3031Z" fill="url(#paint11_linear_134_288)"/>
<path d="M16.2148 36.1627C14.0648 36.1627 12.3218 34.5811 12.3218 32.6301C12.3218 30.6791 14.0648 29.0975 16.2148 29.0975C18.3649 29.0975 20.1079 30.6791 20.1079 32.6301C20.1079 34.5811 18.3649 36.1627 16.2148 36.1627Z" fill="url(#paint12_linear_134_288)"/>
<path d="M16.2148 35.068C14.731 35.068 13.5281 33.9765 13.5281 32.6301C13.5281 31.2836 14.731 30.1921 16.2148 30.1921C17.6987 30.1921 18.9016 31.2836 18.9016 32.6301C18.9016 33.9765 17.6987 35.068 16.2148 35.068Z" fill="url(#paint13_linear_134_288)"/>
<path d="M17.2356 32.2085C16.9285 32.2085 16.6796 31.9826 16.6796 31.704C16.6796 31.4254 16.9285 31.1996 17.2356 31.1996C17.5426 31.1996 17.7915 31.4254 17.7915 31.704C17.7915 31.9826 17.5426 32.2085 17.2356 32.2085Z" fill="url(#paint14_linear_134_288)"/>
<path d="M15.1942 32.2085C14.8872 32.2085 14.6383 31.9826 14.6383 31.704C14.6383 31.4254 14.8872 31.1996 15.1942 31.1996C15.5012 31.1996 15.7501 31.4254 15.7501 31.704C15.7501 31.9826 15.5012 32.2085 15.1942 32.2085Z" fill="url(#paint15_linear_134_288)"/>
<path d="M17.2356 34.0618C16.9285 34.0618 16.6796 33.8359 16.6796 33.5573C16.6796 33.2787 16.9285 33.0529 17.2356 33.0529C17.5426 33.0529 17.7915 33.2787 17.7915 33.5573C17.7915 33.8359 17.5426 34.0618 17.2356 34.0618Z" fill="url(#paint16_linear_134_288)"/>
<path d="M15.1942 34.0618C14.8872 34.0618 14.6383 33.8359 14.6383 33.5573C14.6383 33.2787 14.8872 33.0529 15.1942 33.0529C15.5012 33.0529 15.7501 33.2787 15.7501 33.5573C15.7501 33.8359 15.5012 34.0618 15.1942 34.0618Z" fill="url(#paint17_linear_134_288)"/>
</g>
<defs>
<linearGradient id="paint0_linear_134_288" x1="26.1966" y1="4.37963" x2="26.433" y2="12.015" gradientUnits="userSpaceOnUse">
<stop stop-color="#FFB92D"/>
<stop offset="1" stop-color="#F59500"/>
</linearGradient>
<linearGradient id="paint1_linear_134_288" x1="24.8212" y1="9.44831" x2="25.4662" y2="15.3115" gradientUnits="userSpaceOnUse">
<stop stop-color="#FFB92D"/>
<stop offset="1" stop-color="#F59500"/>
</linearGradient>
<linearGradient id="paint2_linear_134_288" x1="27.299" y1="9.6212" x2="27.299" y2="14.0763" gradientUnits="userSpaceOnUse">
<stop stop-color="#A7F3CE"/>
<stop offset="1" stop-color="#61DB99"/>
</linearGradient>
<linearGradient id="paint3_linear_134_288" x1="27.0003" y1="17.3333" x2="27.0003" y2="29.8347" gradientUnits="userSpaceOnUse">
<stop stop-color="#FF4C54"/>
<stop offset="1" stop-color="#BE3F45"/>
</linearGradient>
<linearGradient id="paint4_linear_134_288" x1="27.0003" y1="26.6162" x2="27.0003" y2="45.9237" gradientUnits="userSpaceOnUse">
<stop stop-color="#FF4C54"/>
<stop offset="1" stop-color="#BE3F45"/>
</linearGradient>
<linearGradient id="paint5_linear_134_288" x1="5.22427" y1="30.5648" x2="8.80938" y2="30.5648" gradientUnits="userSpaceOnUse">
<stop stop-color="#BE3F45" stop-opacity="0"/>
<stop offset="1" stop-color="#BE3F45"/>
</linearGradient>
<linearGradient id="paint6_linear_134_288" x1="37.2871" y1="27.2251" x2="19.7107" y2="36.1601" gradientUnits="userSpaceOnUse">
<stop stop-color="#FFB92D"/>
<stop offset="1" stop-color="#F59500"/>
</linearGradient>
<linearGradient id="paint7_linear_134_288" x1="30.5185" y1="44.2223" x2="31.141" y2="49.4663" gradientUnits="userSpaceOnUse">
<stop stop-color="#BE3F45" stop-opacity="0"/>
<stop offset="1" stop-color="#BE3F45"/>
</linearGradient>
<linearGradient id="paint8_linear_134_288" x1="49.2691" y1="13.2326" x2="49.2691" y2="46.6681" gradientUnits="userSpaceOnUse">
<stop stop-color="#FFF465"/>
<stop offset="1" stop-color="#FFE600"/>
</linearGradient>
<linearGradient id="paint9_linear_134_288" x1="28.0876" y1="13.2338" x2="28.0876" y2="46.5992" gradientUnits="userSpaceOnUse">
<stop stop-color="#FFF465"/>
<stop offset="1" stop-color="#FFE600"/>
</linearGradient>
<linearGradient id="paint10_linear_134_288" x1="47.5183" y1="13.2318" x2="47.5183" y2="46.6664" gradientUnits="userSpaceOnUse">
<stop stop-color="#FFF465"/>
<stop offset="1" stop-color="#FFE600"/>
</linearGradient>
<linearGradient id="paint11_linear_134_288" x1="11.0191" y1="37.346" x2="20.8723" y2="26.4874" gradientUnits="userSpaceOnUse">
<stop stop-color="#BE3F45" stop-opacity="0"/>
<stop offset="1" stop-color="#BE3F45"/>
</linearGradient>
<linearGradient id="paint12_linear_134_288" x1="16.2157" y1="30.4131" x2="16.2157" y2="35.5215" gradientUnits="userSpaceOnUse">
<stop stop-color="#FF4C54"/>
<stop offset="1" stop-color="#BE3F45"/>
</linearGradient>
<linearGradient id="paint13_linear_134_288" x1="16.2157" y1="34.161" x2="16.2157" y2="30.6359" gradientUnits="userSpaceOnUse">
<stop stop-color="#FF4C54"/>
<stop offset="1" stop-color="#BE3F45"/>
</linearGradient>
<linearGradient id="paint14_linear_134_288" x1="22.5055" y1="10.5897" x2="21.5821" y2="15.0834" gradientUnits="userSpaceOnUse">
<stop stop-color="#A7F3CE"/>
<stop offset="1" stop-color="#61DB99"/>
</linearGradient>
<linearGradient id="paint15_linear_134_288" x1="20.4641" y1="10.5899" x2="19.5407" y2="15.0836" gradientUnits="userSpaceOnUse">
<stop stop-color="#A7F3CE"/>
<stop offset="1" stop-color="#61DB99"/>
</linearGradient>
<linearGradient id="paint16_linear_134_288" x1="22.9454" y1="10.6801" x2="22.0221" y2="15.1738" gradientUnits="userSpaceOnUse">
<stop stop-color="#A7F3CE"/>
<stop offset="1" stop-color="#61DB99"/>
</linearGradient>
<linearGradient id="paint17_linear_134_288" x1="20.904" y1="10.6803" x2="19.9807" y2="15.1741" gradientUnits="userSpaceOnUse">
<stop stop-color="#A7F3CE"/>
<stop offset="1" stop-color="#61DB99"/>
</linearGradient>
<clipPath id="clip0_134_288">
<rect width="54" height="49" fill="white" transform="matrix(-1 0 0 1 54 0)"/>
</clipPath>
</defs>
</svg>
